<svg xmlns="http://www.w3.org/2000/svg" width="118" height="26" fill="none" viewBox="0 0 118 26"><path fill="#414047" d="M12.938 3.843c2.985 0 5.774 1.43 7.459 3.827l.24.341 2.775-2.717-.183-.24C20.767 1.843 17 0 12.894 0 5.784 0 0 5.643 0 12.579s5.784 12.578 12.894 12.578c3.796 0 7.383-1.622 9.84-4.45l.21-.242-2.731-2.675-.247.296c-1.724 2.075-4.285 3.265-7.028 3.265-4.975 0-9.023-3.927-9.023-8.754s4.048-8.754 9.023-8.754M113.386.52l-1.779 2.828-5.44 8.39-6.153-9.511L98.941.52h-4.613l2.044 3.137 7.873 12.17v7.175q0 .04.003.076l.001 1.75c0 .046.037.083.084.083h.702c1.696 0 3.071-1.346 3.071-3.007l-.001-6.078 8.024-12.428.03-.055 1.84-2.823zM34.093 2.303 24.027 24.87h4.238l8.009-17.786 8.009 17.786h4.191L37.583.55a.09.09 0 0 0-.078-.05h-.68c-1.221 0-2.243.708-2.732 1.804M76.093.552V4.32h4.966l.04-.01h2.156c2.36 0 4.397.83 6.058 2.465 1.668 1.624 2.515 3.619 2.515 5.93 0 2.3-.847 4.295-2.516 5.93-1.659 1.623-3.697 2.447-6.057 2.447h-1.916v-.002h-5.248v3.772h7.164c3.42 0 6.378-1.197 8.79-3.558 2.41-2.361 3.633-5.251 3.633-8.59 0-3.35-1.222-6.245-3.633-8.606S86.675.54 83.255.54H78.01M67.719 17.992 55.259.555h-3.685v24.29h3.872V7.455l12.46 17.39h3.684V.555H67.72z"/></svg>