<svg width="118" height="26" fill="none" viewBox="0 0 118 26"><path fill="#414047" d="M12.94 3.84a9.1 9.1 0 0 1 7.46 3.83l.24.34L23.4 5.3l-.18-.24A12.9 12.9 0 0 0 12.89 0C5.8 0 0 5.64 0 12.58s5.78 12.58 12.9 12.58c3.79 0 7.38-1.63 9.83-4.45l.21-.25-2.73-2.67-.24.3a9.1 9.1 0 0 1-7.03 3.26c-4.98 0-9.02-3.93-9.02-8.75s4.04-8.76 9.02-8.76M113.39.52l-1.78 2.83-5.44 8.39L100 2.23 98.94.52h-4.61l2.04 3.14 7.87 12.17v9q.01.07.1.08h.7c1.7 0 3.07-1.35 3.07-3v-6.08l8.02-12.43.03-.06L118 .52zM34.09 2.3 24.03 24.87h4.24l8-17.79 8.01 17.79h4.2L37.57.55 37.5.5h-.69c-1.22 0-2.24.7-2.73 1.8m42-1.75v3.77h4.97l.04-.01h2.16q3.56 0 6.05 2.47a8 8 0 0 1 2.52 5.93q0 3.46-2.52 5.92a8.4 8.4 0 0 1-6.05 2.45h-7.17v3.77h7.17q5.15-.01 8.79-3.56a11.6 11.6 0 0 0 3.63-8.59q0-5.04-3.63-8.6C88.42.54 86.68.54 83.25.54h-5.24m-10.3 17.45L55.27.56h-3.69v24.29h3.88V7.45l12.46 17.4h3.68V.54h-3.87z"/></svg>