<svg width="83" height="25" fill="none" viewBox="0 0 83 25"><path fill="#fff" d="M50.29 2.68A2.65 2.65 0 0 0 47.59 0a2.67 2.67 0 1 0-.04 5.35 2.65 2.65 0 0 0 2.74-2.67m-29.3 21.44v-11q0-5.55-.02-11.08c0-.27 0-.4-.07-.47q-.08-.08-.45-.06h-4.28c-.27 0-.4 0-.47.07q-.09.07-.07.48v8.4q.02.34-.07.42-.07.07-.43.06h-9.3q-.34.01-.43-.06c-.06-.06-.06-.17-.06-.41V1.84c0-.28-.04-.32-.32-.32H.4c-.36 0-.4.04-.4.4v22.52q.02.19.22.2l.3.01H4.8c.28 0 .41 0 .48-.06q.09-.09.07-.47V15.8c0-.53.01-.53.53-.53h9.2q.4-.02.5.07c.06.07.06.2.06.48v8.37c0 .46.02.47.48.47h4.32c.27 0 .4 0 .48-.06q.07-.09.06-.47"/><path fill="#fff" fill-rule="evenodd" d="M42.07 24.1v-8.2l.02-4V7.54c0-.38-.04-.41-.42-.41H37.8c-.35 0-.38.03-.38.37q0 .4-.08.43-.08.05-.42-.14A9.3 9.3 0 0 0 31 6.9a9 9 0 0 0-5.41 3.06 9 9 0 0 0-2.23 5.65 9 9 0 0 0 .55 3.36A9.2 9.2 0 0 0 32.69 25a9 9 0 0 0 4.12-.97q.31-.16.39-.13.07.04.07.41c0 .31.03.34.34.35h3.92c.27 0 .4 0 .47-.07s.07-.2.07-.48M32.15 10.7a5.3 5.3 0 0 1 4.52 1.5 5 5 0 0 1 1.53 3.26 5 5 0 0 1-1.45 4.02 5.2 5.2 0 0 1-3.24 1.58 5.2 5.2 0 0 1-3.5-.77 5 5 0 0 1-2.48-4.8 5.24 5.24 0 0 1 4.62-4.8m25.3 6.2c-.5 0-.5.01-.39.48a5.2 5.2 0 0 0 4.42 3.85 5 5 0 0 0 4.63-1.96q.19-.23.32-.45c.12-.23.29-.26.52-.22q.46.09.93.16l.5.09q.93.14 1.88.32h.02l.05.02.1.02c.26.06.29.1.17.35a9 9 0 0 1-1.33 2.09 9.2 9.2 0 0 1-5.36 3.15 9.5 9.5 0 0 1-8.02-1.9 8.8 8.8 0 0 1-3.38-6.22 8.4 8.4 0 0 1 .97-4.89 9.2 9.2 0 0 1 6.39-4.81 9.4 9.4 0 0 1 8.32 2.06 8.8 8.8 0 0 1 3.18 7.58c-.04.24-.06.27-.3.28h-.3zm9.12-3h.12q.16-.01.11-.16a5 5 0 0 0-1.38-1.88 5 5 0 0 0-3.8-1.24 5 5 0 0 0-4.2 2.92c-.17.35-.17.36.24.36z" clip-rule="evenodd"/><path fill="#fff" d="M73.46 19.12V14.7a9.4 9.4 0 0 1 6.89-8.98q.38-.12.77-.19c.22-.03.25-.01.3.21l.7 3.9c.05.35.05.37-.3.43a4.5 4.5 0 0 0-3.61 3.63 6 6 0 0 0-.1 1.13v9.28q.02.38-.06.47t-.47.07h-3.85c-.21-.02-.25-.05-.26-.26v-.23zM50 24.15V7.37c-.02-.21-.06-.25-.26-.26h-4.06q-.4-.02-.5.07c-.07.07-.07.21-.07.51v16.72c.02.2.07.23.27.24h4.11c.26 0 .38 0 .45-.06q.08-.08.06-.44"/></svg>