<svg width="30" height="30" fill="none" viewBox="0 0 30 30"><g fill="#fff" clip-path="url(#a)"><path d="M15 10.57a5 5 0 0 1 1.67.3A7.18 7.18 0 0 0 4 15.5a11 11 0 0 0 3.2 7.71A8.74 8.74 0 0 1 15 10.57"/><path d="M19.93 15.5a5 5 0 0 1-.3 1.67A7.18 7.18 0 0 0 15 4.5a11 11 0 0 0-7.71 3.2 8.74 8.74 0 0 1 12.64 7.8"/><path d="M22.8 7.75A8.75 8.75 0 0 1 15 20.43q-.87 0-1.67-.3A7.18 7.18 0 0 0 26 15.52a11 11 0 0 0-3.2-7.72"/><path d="M10.07 15.5q0-.86.3-1.68a7.19 7.19 0 0 0 4.62 12.68 11 11 0 0 0 7.72-3.2 8.75 8.75 0 0 1-12.64-7.8"/></g><defs><clipPath id="a"><path fill="#fff" d="M4 4.5h22v22H4z"/></clipPath></defs></svg>