<svg width="30" height="30" fill="none" viewBox="0 0 30 30"><path fill="#fff" d="M23.45 15.6c-.3.33-1.27 1.32-2.33 2.36-.24-2.5-.53-5.44-.72-7.66l-.24-2.61h2.66c.42 0 .53.03.57.06s.05.07.05.37zm-3.25 8.9a1.4 1.4 0 0 1-1.14.45H8.93a2 2 0 0 1-1.53-.67 1.5 1.5 0 0 1-.32-1.24l.1-.59h13.3l.09.83c.03.44-.1.88-.37 1.23M9.25 9.97l.2-1.23c.11-.68 0-1.54-.53-1.94l-.08-.06c-.26-.18-.92-.63-.9-1s.02-.6 1.22-.6l5.11-.05 3.44-.04a1.4 1.4 0 0 1 1.25 1.13l.4 4.22c.29 3.22.57 6.28.8 8.62a.5.5 0 0 0 .03.37q.1 1.16.2 2.01H7.36c.5-2.96 1.46-8.85 1.88-11.42m13.57-3.34h-2.75L20 6.07A2.4 2.4 0 0 0 17.7 4l-3.43.04-5.12.04c-1.1 0-2.21.13-2.28 1.6-.04.91.88 1.59 1.32 1.92l.07.05q.26.44.14.93L8.2 9.8 6.25 21.65l-.08.27v.1l-.14.82a2.5 2.5 0 0 0 .52 2.11 3 3 0 0 0 2.34 1.06h10.18A2.4 2.4 0 0 0 21 25.2a2.8 2.8 0 0 0 .61-2.08c0-.17-.17-1.72-.37-3.8 3.25-3.17 3.26-3.29 3.26-3.56V8.12c0-1.48-1.1-1.48-1.68-1.48"/><path fill="#fff" d="M14.44 10.71a.86.86 0 0 1 .86-.86h.37a.86.86 0 0 1 .86.86v6.25a.86.86 0 0 1-.86.86h-.38a.86.86 0 0 1-.85-.86zm.86 8.16h.37a1.9 1.9 0 0 0 1.91-1.91V10.7a1.9 1.9 0 0 0-1.93-1.91h-.38a1.9 1.9 0 0 0-1.89 1.91v6.25a1.9 1.9 0 0 0 1.91 1.91"/></svg>