<svg width="30" height="30" fill="none" viewBox="0 0 30 30"><path stroke="#fff" stroke-miterlimit="10" stroke-width=".47" d="M11.8 8.66a.2.2 0 0 0-.07-.2l-.94-.97h7.94v.94l1.36 11.35h-9.63zm10.53.3v4.58l-2.22 2.16-.8-6.74zM10.17 20.27h10.2a.3.3 0 0 0 .2-.08.3.3 0 0 0 .06-.2l-.41-3.66 2.57-2.52a.2.2 0 0 0 .08-.18V8.71a.3.3 0 0 0-.08-.18.3.3 0 0 0-.18-.07h-3.37V7.25a.2.2 0 0 0-.07-.18.3.3 0 0 0-.19-.07h-8.77l-.14.04a.2.2 0 0 0-.1.1.3.3 0 0 0 .05.28l1.26 1.3-1.36 11.27a.2.2 0 0 0 .06.2.2.2 0 0 0 .19.08Zm-4.59-4.6 2.03 1.18.12.03a.3.3 0 0 0 .2-.1.2.2 0 0 0-.08-.28l-2.02-1.18a.24.24 0 0 0-.31.07.2.2 0 0 0 .07.28Zm2.16 3.44q-.02-.05-.23-.06H5.23q-.21 0-.23.06.02.06.23.06h2.28q.21 0 .23-.06Zm-.03 2-2.2.77a.2.2 0 0 0-.12.1.2.2 0 0 0 0 .15.2.2 0 0 0 .2.12h.1l2.18-.78a.2.2 0 0 0 .12-.1.2.2 0 0 0 0-.15.2.2 0 0 0-.12-.11.2.2 0 0 0-.16 0Zm14.37-4.33a.2.2 0 0 0 .19.1l.12-.03 2.03-1.18a.2.2 0 0 0 .1-.13.2.2 0 0 0-.04-.15.23.23 0 0 0-.3-.07l-2.03 1.18a.2.2 0 0 0-.1.13.2.2 0 0 0 .03.15Zm2.69 2.27h-2.28q-.21 0-.23.06.02.06.23.06h2.28q.21 0 .23-.06c.02-.06-.1-.06-.23-.06Zm-.28 2.83-2.19-.77a.2.2 0 0 0-.17-.01.2.2 0 0 0-.13.1.2.2 0 0 0 .05.22l.07.04 2.19.78h.08a.2.2 0 0 0 .21-.12.2.2 0 0 0-.05-.2zm-4.18 0H9.69q-.23 0-.25.07c-.03.07.1.06.25.06h10.62c.14 0 .26-.03.26-.06s-.12-.07-.26-.07Z"/></svg>