<svg width="30" height="30" viewBox="0 0 30 30" fill="none" xmlns="http://www.w3.org/2000/svg">
<g clip-path="url(#clip0_75_204)">
<g clip-path="url(#clip1_75_204)">
<path d="M10.6811 13.0594L11.1504 12.7781L11.1593 12.231L11.2654 5.80497L13.6354 5.16992L16.9403 10.682L17.2216 11.1513L17.7687 11.1604L24.1948 11.2663L24.8298 13.6364L19.3177 16.9412L18.8484 17.2226L18.8395 17.7697L18.7334 24.1957L16.3634 24.8307L13.0585 19.3186L12.7771 18.8495L12.23 18.8404L5.804 18.7343L5.16895 16.3643L10.6811 13.0594Z" stroke="white" stroke-width="1.70455"/>
<path d="M15 16.9699C16.0878 16.9699 16.9697 16.088 16.9697 15.0002C16.9697 13.9123 16.0878 13.0305 15 13.0305C13.9121 13.0305 13.0303 13.9123 13.0303 15.0002C13.0303 16.088 13.9121 16.9699 15 16.9699Z" fill="white"/>
<path d="M14.9998 28.7879C22.6146 28.7879 28.7877 22.6149 28.7877 15C28.7877 7.3852 22.6146 1.21216 14.9998 1.21216C7.38496 1.21216 1.21191 7.3852 1.21191 15C1.21191 22.6149 7.38496 28.7879 14.9998 28.7879Z" stroke="white" stroke-width="1.70455"/>
</g>
</g>
<defs>
<clipPath id="clip0_75_204">
<rect width="30" height="30" fill="white"/>
</clipPath>
<clipPath id="clip1_75_204">
<rect width="30" height="30" fill="white"/>
</clipPath>
</defs>
</svg>
