<svg width="30" height="30" fill="none" viewBox="0 0 30 30"><g fill="#fff" clip-path="url(#a)"><path d="M6 16.1a9.2 9.2 0 0 0 2.6 6.49 9 9 0 0 0 6.4 2.73c5.05 0 9-3.87 9-8.8 0-5.22-4.12-9.63-9-9.63a9 9 0 0 0-4.65 1.33l.47-2.48a.6.6 0 0 0-.44-.74.57.57 0 0 0-.66.49l-.75 3.78a9 9 0 0 0-2.2 3.1A9 9 0 0 0 6 16.11m16.84 0a8 8 0 0 1-2.27 5.62A8 8 0 0 1 15 24.1a8 8 0 0 1-4.43-1.44 8 8 0 0 1-2.87-3.7 8 8 0 0 1-.32-4.66 8 8 0 0 1 2.34-4.05l3.54.46a.6.6 0 0 0 .57-.3l.07-.22a.6.6 0 0 0-.5-.68l-2.29-.3a7.7 7.7 0 0 1 3.9-1.07c2.1.02 4.1.87 5.56 2.36a8 8 0 0 1 2.27 5.62"/><path d="M10.6 15.06q.39 0 .67.13.28.12.43.36t.16.56-.16.55a1 1 0 0 1-.43.37 2 2 0 0 1-.67.12h-.66V18H9.4v-2.94zm-.02 1.63q.36 0 .54-.15t.19-.43-.19-.44-.54-.15h-.64v1.17zm3.98-.93V18h-.5v-.29a1 1 0 0 1-.31.24q-.19.08-.4.08-.46 0-.72-.25t-.26-.74v-1.28h.53v1.2q0 .3.13.46a.5.5 0 0 0 .4.15.6.6 0 0 0 .44-.18q.17-.17.17-.5v-1.13zm.7-.88h.52V18h-.53zm1.9 3.15q-.27 0-.54-.07a1 1 0 0 1-.41-.18l.2-.4q.15.1.36.16.22.06.42.06.47 0 .47-.25 0-.11-.12-.16l-.38-.09-.46-.1a1 1 0 0 1-.3-.18.6.6 0 0 1-.12-.39q0-.32.26-.5.27-.2.72-.2.23 0 .47.06t.37.14l-.2.4a1 1 0 0 0-.64-.17 1 1 0 0 0-.35.07q-.12.06-.12.18t.12.18.4.1.44.1a1 1 0 0 1 .3.18q.12.13.12.37 0 .31-.27.5t-.74.19m3.58-1.14-.01.16h-1.76q.04.25.24.4a1 1 0 0 0 .48.14q.37 0 .61-.25l.28.33a1 1 0 0 1-.38.27 1.4 1.4 0 0 1-.52.09q-.37 0-.65-.15a1 1 0 0 1-.44-.4 1 1 0 0 1-.15-.6q0-.33.15-.59t.41-.41.6-.15.58.15a1 1 0 0 1 .4.4q.15.27.15.61m-1.13-.74q-.25 0-.43.15a.6.6 0 0 0-.2.4h1.26a.6.6 0 0 0-.2-.4.6.6 0 0 0-.43-.15"/></g><defs><clipPath id="a"><path fill="#fff" d="M6 5h18v20.32H6z"/></clipPath></defs></svg>