<svg xmlns="http://www.w3.org/2000/svg" width="30" height="30" fill="none" viewBox="0 0 30 30"><path fill="#fff" d="M23.445 15.598c-.29.332-1.27 1.324-2.33 2.362-.232-2.504-.527-5.44-.712-7.665-.095-1.023-.169-1.898-.242-2.605h2.662c.416 0 .527.032.564.058s.058.074.058.37zm-3.248 8.905a1.41 1.41 0 0 1-1.133.443H8.93a1.97 1.97 0 0 1-1.529-.665 1.5 1.5 0 0 1-.321-1.244l.105-.585h13.296c.047.459.074.749.084.828.037.443-.095.883-.369 1.233M9.247 9.968l.2-1.223c.117-.68 0-1.545-.526-1.94l-.085-.064c-.258-.179-.917-.632-.901-1.007s.026-.595 1.228-.595c.754 0 3.063-.027 5.109-.048l3.442-.037a1.365 1.365 0 0 1 1.245 1.129c.026.263.184 1.966.395 4.217.295 3.221.58 6.284.801 8.62a.5.5 0 0 0 .037.374c.069.765.132 1.445.19 2.009H7.365c.496-2.963 1.466-8.857 1.882-11.42m13.576-3.347h-2.757c-.032-.29-.048-.485-.058-.564A2.42 2.42 0 0 0 17.714 4l-3.437.037c-2.035.021-4.339.047-5.114.047-1.107 0-2.214.122-2.283 1.603-.037.907.875 1.582 1.318 1.909l.074.057c.164.278.213.61.137.923L8.21 9.8c-.443 2.7-1.492 9.094-1.956 11.852a.53.53 0 0 0-.084.263 1 1 0 0 0 0 .1c-.064.39-.116.68-.143.828a2.5 2.5 0 0 0 .527 2.109 2.99 2.99 0 0 0 2.336 1.054h10.175a2.43 2.43 0 0 0 1.93-.806 2.77 2.77 0 0 0 .616-2.078c0-.168-.174-1.723-.369-3.811 3.248-3.163 3.258-3.28 3.258-3.548v-7.64c0-1.486-1.101-1.486-1.676-1.486"/><path fill="#fff" d="M14.435 10.71a.86.86 0 0 1 .86-.859h.374a.86.86 0 0 1 .86.86v6.247a.86.86 0 0 1-.86.86h-.375a.86.86 0 0 1-.859-.86zm.86 8.162h.374a1.92 1.92 0 0 0 1.913-1.914v-6.247a1.92 1.92 0 0 0-1.934-1.914h-.375a1.92 1.92 0 0 0-1.892 1.914v6.247a1.92 1.92 0 0 0 1.913 1.914"/></svg>