<svg width="29" height="29" fill="none" viewBox="0 0 29 29"><g fill="#fff" fill-rule="evenodd" clip-path="url(#a)" clip-rule="evenodd"><path d="m22.08 4.37 1.2.27c.7.15 2.05.56 3.26 1.31C27.72 6.7 29 7.92 29 9.77V16a6 6 0 0 1-2.9 5.09 10 10 0 0 1-2.76 1.27h-.02l-.25-.95.24.96-1.23.31zM24.06 20q.45-.21.93-.53c1.09-.74 2.03-1.83 2.03-3.45V9.77c0-.82-.55-1.53-1.53-2.14a8 8 0 0 0-1.43-.7z"/><path d="M.12.66h23.94v.99h-1 1v16.98c0 5.23-2.29 8.2-3.17 9.14a1.8 1.8 0 0 1-1.35.57H8.62a1.8 1.8 0 0 1-1.33-.56c-.9-.92-3.26-3.9-3.26-9.15V5.09zM6 4.72v13.91c0 4.5 1.97 6.99 2.66 7.73H19.5c.68-.75 2.58-3.25 2.58-7.73v-16H4.5L6 4.36z"/><path d="M10.22 5.6a.99.99 0 1 0 0 1.98h3.95a.99.99 0 1 0 0-1.98zm0 3.96a.99.99 0 1 0 0 1.97h3.95a.99.99 0 1 0 0-1.97zm-1 4.94a1 1 0 0 1 1-.99h3.95a.99.99 0 1 1 0 1.98h-3.95a1 1 0 0 1-1-.99m1 2.97a.99.99 0 1 0 0 1.97h1.97a.99.99 0 1 0 0-1.97z"/></g><defs><clipPath id="a"><path fill="#fff" d="M0 0h29v29H0z"/></clipPath></defs></svg>