<svg xmlns="http://www.w3.org/2000/svg" width="30" height="30" fill="none" viewBox="0 0 30 30"><g clip-path="url(#a)"><path stroke="#fff" stroke-miterlimit="10" stroke-width=".954" d="m23.029 5.4.048 2.42a3.5 3.5 0 0 1-.966 2.513l-3.126 3.253a1.04 1.04 0 0 0-.174 1.216l1.107 2.12a.69.69 0 0 1-.136.819l-1.898 1.791a.69.69 0 0 1-.734.136l-2.314-.969a.96.96 0 0 0-1.107.213l-4.256 4.31-1.058 1.946a.682.682 0 0 1-1.27-.209l-.372-2.188a3.53 3.53 0 0 1 .966-3.08l3.43-3.418a.97.97 0 0 0 .222-1.036l-.932-2.469a.68.68 0 0 1 .16-.726l1.661-1.675a.69.69 0 0 1 .763-.14l2.078.929a1.04 1.04 0 0 0 1.169-.218l4.319-4.358 1.173-1.559a.681.681 0 0 1 1.247.378Z"/><path fill="#fff" d="M16.184 14.884a1.29 1.29 0 0 1-.795 1.19 1.283 1.283 0 0 1-1.751-.942 1.29 1.29 0 0 1 .55-1.321 1.283 1.283 0 0 1 1.996 1.073"/></g><defs><clipPath id="a"><path fill="#fff" d="M6 4h17.802v22.252H6z"/></clipPath></defs></svg>