<svg width="30" height="30" fill="none" viewBox="0 0 30 30"><path fill="#fff" d="M9.34 4.63a5.3 5.3 0 0 0-2.95.9 5.3 5.3 0 0 0-1.95 2.39A5.3 5.3 0 0 0 5.6 13.7a5.3 5.3 0 0 0 5.8 1.14 5.3 5.3 0 0 0 2.4-1.95c.58-.87.9-1.9.9-2.94a5.3 5.3 0 0 0-1.57-3.77 5.3 5.3 0 0 0-3.79-1.55m0 .79a4.6 4.6 0 0 1 2.52.75 4.5 4.5 0 0 1 1.68 2.03 4.5 4.5 0 0 1-.97 4.93 4.5 4.5 0 0 1-4.94.99 4.5 4.5 0 0 1-2.04-1.66 4.5 4.5 0 0 1 .55-5.7 4.5 4.5 0 0 1 3.2-1.33m2.35 19.78a.8.8 0 0 0 .83.75.83.83 0 0 0 .82-.75v-8.9l-1.65 1.6zm3.18 0a.8.8 0 0 0 .82.75.83.83 0 0 0 .82-.75V13.23l-1.64 1.6zm-9.52 0a.8.8 0 0 0 .82.79.8.8 0 0 0 .83-.79v-2.73l-1.65 1.58zm3.17 0a.8.8 0 0 0 .82.75.83.83 0 0 0 .82-.75V19.4L8.52 21zM24.36 5.6v19.6a.8.8 0 0 0 .82.75.83.83 0 0 0 .82-.75V4zm-6.32 19.6a.8.8 0 0 0 .82.75.83.83 0 0 0 .82-.75V10.16l-1.64 1.6zm3.17 0a.8.8 0 0 0 .82.75.83.83 0 0 0 .82-.75V7.07l-1.64 1.6z"/><path fill="#fff" d="M9.18 10a2 2 0 0 0-.49.08 1 1 0 0 0-.32.22v.33q-.03.5.21.96a.7.7 0 0 0 .6.34.6.6 0 0 0 .5-.29q.2-.3.19-.68a1 1 0 0 0-.19-.7.6.6 0 0 0-.48-.26m.27-3q.3 0 .59.06.3.07.59.18l-.23.98-.5-.13-.48-.04a1 1 0 0 0-.78.34q-.33.44-.29.98a1 1 0 0 1 .48-.3q.35-.12.71-.1a1.5 1.5 0 0 1 1.23.59c.3.41.47.92.44 1.43a2 2 0 0 1-.59 1.43 2 2 0 0 1-1.49.58 2 2 0 0 1-1.55-.63 2.4 2.4 0 0 1-.6-1.74V9.47a2.4 2.4 0 0 1 .15-.97q.18-.47.53-.84a2.5 2.5 0 0 1 1.78-.65"/></svg>