<svg width="30" height="30" viewBox="0 0 30 30" fill="none" xmlns="http://www.w3.org/2000/svg">
<path d="M4.36009 12.72V17.7175C4.36009 20.2019 5.96253 22.22 7.9465 22.22H22.0537C24.0377 22.22 25.6401 20.2019 25.6401 17.7175V12.72" stroke="white" stroke-width="1.9" stroke-linecap="round"/>
<path d="M16.2371 9.00693C16.2254 9.23489 16.1462 9.45443 16.0096 9.63838C15.8729 9.82234 15.6847 9.96263 15.4682 10.0419C15.2518 10.1212 15.0166 10.136 14.7917 10.0844C14.5669 10.0328 14.3622 9.91724 14.2031 9.75186C14.044 9.58649 13.9374 9.37862 13.8966 9.15397C13.8557 8.92931 13.8823 8.69774 13.9732 8.48791C14.064 8.27807 14.2151 8.09917 14.4077 7.97336C14.6003 7.84754 14.8259 7.78033 15.0568 7.78003C15.3775 7.78896 15.6816 7.92298 15.9027 8.15284C16.1239 8.3827 16.2441 8.68974 16.2371 9.00693Z" fill="white"/>
<path d="M11.378 11.077C11.3663 11.305 11.2871 11.5245 11.1505 11.7085C11.0138 11.8924 10.8256 12.0327 10.6091 12.112C10.3927 12.1912 10.1575 12.206 9.93262 12.1545C9.70776 12.1029 9.50312 11.9873 9.34401 11.8219C9.18491 11.6566 9.07833 11.4487 9.03746 11.224C8.9966 10.9994 9.02323 10.7678 9.11407 10.558C9.20491 10.3481 9.35598 10.1692 9.54857 10.0434C9.74117 9.91761 9.96684 9.8504 10.1977 9.8501C10.3568 9.85341 10.5137 9.88784 10.6594 9.9514C10.805 10.015 10.9365 10.1064 11.0462 10.2205C11.156 10.3345 11.2418 10.4689 11.2987 10.6159C11.3557 10.7629 11.3826 10.9196 11.378 11.077Z" fill="white"/>
<path d="M9.37933 16.2404C9.36751 16.4687 9.28815 16.6885 9.1511 16.8727C9.01405 17.0568 8.82534 17.197 8.60839 17.276C8.39145 17.355 8.15582 17.3693 7.93074 17.3171C7.70567 17.2648 7.50107 17.1484 7.34233 16.9822C7.18359 16.816 7.0777 16.6073 7.0378 16.3821C6.99791 16.1569 7.02576 15.9251 7.11791 15.7154C7.21006 15.5058 7.36245 15.3275 7.55616 15.2027C7.74987 15.0779 7.97637 15.0121 8.20756 15.0134C8.36598 15.0179 8.52197 15.0531 8.66662 15.1172C8.81127 15.1812 8.94173 15.2728 9.05055 15.3868C9.15937 15.5007 9.24442 15.6348 9.30083 15.7812C9.35724 15.9277 9.38392 16.0837 9.37933 16.2404Z" fill="white"/>
<path d="M23.1729 16.1808C23.1611 16.4087 23.082 16.6283 22.9453 16.8122C22.8086 16.9962 22.6204 17.1365 22.404 17.2157C22.1875 17.295 21.9523 17.3098 21.7275 17.2582C21.5026 17.2067 21.298 17.0911 21.1389 16.9257C20.9798 16.7603 20.8732 16.5524 20.8323 16.3278C20.7914 16.1031 20.8181 15.8716 20.9089 15.6617C20.9998 15.4519 21.1508 15.273 21.3434 15.1472C21.536 15.0214 21.7617 14.9542 21.9925 14.9539C22.1517 14.9572 22.3086 14.9916 22.4542 15.0552C22.5999 15.1187 22.7313 15.2102 22.8411 15.3242C22.9508 15.4383 23.0366 15.5727 23.0936 15.7197C23.1505 15.8667 23.1775 16.0234 23.1729 16.1808Z" fill="white"/>
<path d="M21.2002 11.077C21.1884 11.305 21.1092 11.5245 20.9726 11.7085C20.8359 11.8924 20.6477 12.0327 20.4313 12.112C20.2148 12.1912 19.9796 12.206 19.7547 12.1545C19.5299 12.1029 19.3252 11.9873 19.1661 11.8219C19.007 11.6566 18.9004 11.4487 18.8596 11.224C18.8187 10.9994 18.8453 10.7678 18.9362 10.558C19.027 10.3481 19.1781 10.1692 19.3707 10.0434C19.5633 9.91761 19.7889 9.8504 20.0198 9.8501C20.1789 9.85341 20.3358 9.88784 20.4815 9.9514C20.6271 10.015 20.7586 10.1064 20.8683 10.2205C20.9781 10.3345 21.0639 10.4689 21.1208 10.6159C21.1778 10.7629 21.2047 10.9196 21.2002 11.077Z" fill="white"/>
<path d="M16.203 13.5311C16.1912 13.7591 16.1121 13.9786 15.9754 14.1626C15.8388 14.3465 15.6506 14.4868 15.4341 14.5661C15.2176 14.6453 14.9824 14.6601 14.7576 14.6086C14.5327 14.557 14.3281 14.4414 14.169 14.276C14.0099 14.1107 13.9033 13.9028 13.8624 13.6781C13.8215 13.4535 13.8482 13.2219 13.939 13.0121C14.0299 12.8022 14.1809 12.6233 14.3735 12.4975C14.5661 12.3717 14.7918 12.3045 15.0226 12.3042C15.3433 12.3131 15.6474 12.4471 15.8686 12.677C16.0897 12.9069 16.21 13.2139 16.203 13.5311Z" fill="white"/>
<path d="M13.73 16.2406C13.7182 16.4685 13.6391 16.6881 13.5025 16.872C13.3658 17.056 13.1776 17.1963 12.9611 17.2755C12.7447 17.3548 12.5095 17.3696 12.2846 17.318C12.0597 17.2665 11.8551 17.1509 11.696 16.9855C11.5369 16.8201 11.4303 16.6123 11.3895 16.3876C11.3486 16.163 11.3752 15.9314 11.4661 15.7215C11.5569 15.5117 11.708 15.3328 11.9006 15.207C12.0932 15.0812 12.3188 15.014 12.5497 15.0137C12.7088 15.017 12.8657 15.0514 13.0114 15.115C13.157 15.1785 13.2885 15.27 13.3982 15.384C13.5079 15.4981 13.5938 15.6325 13.6507 15.7795C13.7077 15.9265 13.7346 16.0832 13.73 16.2406Z" fill="white"/>
<path d="M19.0114 16.1808C18.9996 16.4091 18.9203 16.629 18.7832 16.8131C18.6462 16.9972 18.4575 17.1375 18.2405 17.2165C18.0236 17.2955 17.7879 17.3097 17.5629 17.2575C17.3378 17.2053 17.1332 17.0888 16.9744 16.9226C16.8157 16.7564 16.7098 16.5477 16.6699 16.3225C16.63 16.0974 16.6579 15.8655 16.75 15.6559C16.8422 15.4462 16.9946 15.2679 17.1883 15.1431C17.382 15.0183 17.6085 14.9525 17.8397 14.9539C17.9981 14.9583 18.1541 14.9935 18.2987 15.0576C18.4434 15.1216 18.5738 15.2133 18.6827 15.3272C18.7915 15.4412 18.8765 15.5752 18.9329 15.7216C18.9894 15.8681 19.016 16.0241 19.0114 16.1808Z" fill="white"/>
</svg>
