<svg width="30" height="30" fill="none" viewBox="0 0 30 30"><path fill="#fff" d="M14.66 8.4H9.93a.5.5 0 0 0-.52.3.5.5 0 0 0 0 .42.5.5 0 0 0 .52.3h4.73a.5.5 0 0 0 .53-.3.5.5 0 0 0 0-.42.5.5 0 0 0-.53-.3m0 3.15H9.93a.5.5 0 0 0-.52.3l-.04.21a.5.5 0 0 0 .36.47l.2.02h4.73a.5.5 0 0 0 .52-.29l.05-.2a.5.5 0 0 0-.36-.49zm0 3.34H9.93a.5.5 0 0 0-.61.26.5.5 0 0 0 .37.74q.13.02.24-.02h4.73a.5.5 0 0 0 .61-.26.5.5 0 0 0-.37-.73zm-1.93 3.35h-2.8a.5.5 0 0 0-.61.25.5.5 0 0 0 .15.65.5.5 0 0 0 .46.07h2.8a.5.5 0 0 0 .62-.25.5.5 0 0 0-.38-.74z"/><path fill="#fff" d="M25.94 17.48v-6.74a2 2 0 0 0-.65-1.35c-.4-.33-2.78-1.76-3.62-2.24V4.5H4l1.84 2.15v12.66c0 1.48 3.36 6.19 3.36 6.19h10.39a29 29 0 0 0 1.79-3.67c.94-.56 3.38-2.01 3.78-2.4.47-.54.75-1.23.78-1.95m-7.04 6.91H9.81c-1.4-2.05-2.8-4.43-2.82-5.08V6.65q0-.39-.26-.7l-.3-.34h14.1v14.9c0 .57-.8 2.35-1.64 3.88m5.89-6.91q-.07.64-.45 1.17c-.18.18-1.35.91-2.65 1.69V8.45c1.34.8 2.64 1.6 2.84 1.77q.21.24.26.57z"/></svg>