<svg width="30" height="30" fill="none" viewBox="0 0 30 30"><path stroke="#fff" stroke-width="1.71" d="m15.88 7.45 3.78 7.98.01.02.06.12v.01h.01q.48.95.49 2a4.4 4.4 0 0 1-1.28 3.1 4.4 4.4 0 0 1-3.07 1.29 4.4 4.4 0 0 1-3.08-1.28 4.4 4.4 0 0 1-1.29-3.1 4 4 0 0 1 .5-2l.02-.04.02-.04.04-.1z"/><path fill="#fff" fill-rule="evenodd" d="M15.51 13.34a.87.87 0 0 1 1.16.43l1.2 2.64.03.11.01.03a3 3 0 0 1-.24 2.39.87.87 0 0 1-1.5-.9q.12-.18.14-.57 0-.23-.06-.39l-1.17-2.6a.87.87 0 0 1 .43-1.15" clip-rule="evenodd"/><path fill="#fff" d="m22.25 23.35 4.6-.5a.3.3 0 0 1 .34.34l-.5 4.6a.31.31 0 0 1-.54.19l-4.09-4.1a.31.31 0 0 1 .19-.53"/><path fill="#fff" d="M26.46 25.35a14.8 14.8 0 0 1-10.59 4.46 14.8 14.8 0 1 1 0-29.62A14.8 14.8 0 0 1 27.3 5.58a.84.84 0 0 1-.27 1.27.9.9 0 0 1-1.14-.24 13 13 0 0 0-10.02-4.68 13.07 13.07 0 1 0 9.23 22.32l.35.77z"/></svg>