<svg width="30" height="30" fill="none" viewBox="0 0 30 30"><g clip-path="url(#a)"><path fill="#fff" d="M11.04 23.49c-4.33-2.4-5.83-8.01-3.34-12.53a9.6 9.6 0 0 1 3.31-3.48L10 10.03a.7.7 0 0 0 1.14.76l.14-.23 1.57-3.94a8.8 8.8 0 0 1 7.24.58c4.33 2.38 5.83 8 3.36 12.49-2.46 4.5-8.07 6.2-12.4 3.8m9.71-17.52a10.2 10.2 0 0 0-8.44-.63l-4.13-1.3a.7.7 0 0 0-.87.44.7.7 0 0 0 .48.86l2.72.87a11 11 0 0 0-3.98 4.1 10.9 10.9 0 0 0 4.24 14.61c4.85 2.7 10.93.69 13.83-4.57 2.9-5.16 1.16-11.6-3.85-14.38"/><path fill="#fff" d="M15.4 17.13a1.7 1.7 0 0 1-1.26.53 1.2 1.2 0 0 1-.84-.25c-.74-1.07-.16-1.74.62-2.4l.17-.16c.46-.42 3.48-2.9 5.22-4.17-1.1 2.04-3.32 5.8-3.9 6.45m4.98-8.15c-.78 0-6.86 5.14-6.9 5.22l-.17.14c-.62.54-2.05 1.8-.73 3.65l.03.05a2 2 0 0 0 1.52.58 2.6 2.6 0 0 0 1.94-.83 43 43 0 0 0 2.73-4.36c2.24-3.86 2.14-3.99 1.92-4.27a.5.5 0 0 0-.35-.18M7 21a4 4 0 1 0 0-8 4 4 0 0 0 0 8"/><path stroke="#414047" stroke-width="2.12" d="M7 21a4 4 0 1 0 0-8 4 4 0 0 0 0 8Z"/><path fill="#414047" d="m6.92 17.96.8-.88q.25-.24.4-.56.1-.25.1-.52a1 1 0 0 0-.07-.4 1 1 0 0 0-.23-.33 1 1 0 0 0-.78-.27q-.35 0-.67.16-.29.13-.47.42l.39.34a1 1 0 0 1 .31-.28 1 1 0 0 1 .4-.08.6.6 0 0 1 .41.13.4.4 0 0 1 .11.16l.04.2a1 1 0 0 1-.08.34 2 2 0 0 1-.27.38l-1.2 1.3v.43h2.22v-.54z"/></g><defs><clipPath id="a"><path fill="#fff" d="M2 4h24v22.11H2z"/></clipPath></defs></svg>