<svg width="30" height="30" fill="none" viewBox="0 0 30 30"><g clip-path="url(#a)"><mask id="b" width="30" height="30" x="0" y="0" maskUnits="userSpaceOnUse" style="mask-type:luminance"><path fill="#fff" fill-rule="evenodd" d="M.23 15c0-5.93 3.5-11.05 8.54-13.4a16 16 0 0 0-.57 6.28A9.8 9.8 0 0 0 5.15 15c0 1.8.48 3.47 1.32 4.92h-.33a14 14 0 0 1-5.41-1.1Q.23 16.98.23 15m1.37 6.23a14.8 14.8 0 0 0 17.22 8.04 14 14 0 0 0 1.1-5.74A10 10 0 0 1 15 24.85a9.8 9.8 0 0 1-7.13-3.05 16 16 0 0 1-1.73.1q-2.37-.01-4.54-.67m20.3 2.64q0-.89-.1-1.74A9.8 9.8 0 0 0 24.85 15a10 10 0 0 0-1.32-4.92h.33q2.9.02 5.41 1.1a14.8 14.8 0 0 1-8.04 17.22q.65-2.17.66-4.54m6.5-15.1A14.8 14.8 0 0 0 11.19.74a14 14 0 0 0-1.1 5.74A10 10 0 0 1 15 5.15a9.8 9.8 0 0 1 7.13 3.05 16 16 0 0 1 6.27.57" clip-rule="evenodd"/></mask><g mask="url(#b)"><path fill="#fff" d="m8.77 1.6 1.89.57 1.26-4.2L7.94-.19zM8.2 7.88 9.56 9.3l.7-.67-.1-.97zM6.47 19.92l.04 1.97 3.32-.08-1.66-2.87zm-5.74-1.1-1.9.51.24.93.88.37zm.87 2.41.57-1.88-4.2-1.27 1.85 3.98zm17.22 8.04.51 1.9.93-.24.37-.88zm1.1-5.74 1.97-.04-.08-3.32-2.88 1.66zM7.87 21.8l1.43-1.36-.67-.7-.97.1zm13.93.32-1.36-1.42-.7.67.1.97zm1.73-12.04-.04-1.97-3.32.08 1.66 2.88zm5.74 1.1 1.9-.51-.24-.93-.88-.37zM21.23 28.4l-1.88-.57-1.27 4.2 3.98-1.85zM28.4 8.77l-.57 1.88 4.2 1.27-1.85-3.98zM11.18.73l-.51-1.9-.93.24-.37.88zm-1.1 5.74L8.1 6.5l.08 3.33 2.87-1.67zM22.13 8.2 20.7 9.56l.67.7.97-.1zM7.93-.18A16.7 16.7 0 0 0-1.73 15H2.2A12.8 12.8 0 0 1 9.6 3.39zm2.15 6.32q0-2.08.58-3.97L6.88 1.04a18 18 0 0 0-.74 5.1zm.08 1.52q-.08-.75-.08-1.52H6.14q0 .99.1 1.95zM7.12 15a8 8 0 0 1 2.44-5.7L6.84 6.45A11.8 11.8 0 0 0 3.18 15zm1.05 3.94A8 8 0 0 1 7.12 15H3.18c0 2.15.57 4.17 1.58 5.9zm-2.03 2.95h.37l-.1-3.94h-.28zm-6.19-1.26a16 16 0 0 0 6.19 1.26v-3.94a12 12 0 0 1-4.64-.94zM-1.75 15q0 2.25.57 4.33l3.8-1.02A13 13 0 0 1 2.2 15zm1.57 7.06A16.7 16.7 0 0 0 15 31.74V27.8a12.8 12.8 0 0 1-11.61-7.4zM15 31.74q2.25-.01 4.33-.56l-1.02-3.81a13 13 0 0 1-3.31.43zm5.63-1.7a16 16 0 0 0 1.26-6.18h-3.94q-.01 2.5-.94 4.64zm1.26-6.18v-.37l-3.94.09v.28zm-2.96-2.03A8 8 0 0 1 15 22.88v3.94c2.15 0 4.17-.58 5.9-1.58zM15 22.88a8 8 0 0 1-5.7-2.44l-2.85 2.72A11.8 11.8 0 0 0 15 26.82zm-7.34-3.04q-.75.08-1.52.08v3.94a18 18 0 0 0 1.95-.1zm-1.52.08q-2.08 0-3.97-.58l-1.13 3.78a18 18 0 0 0 5.1.74zm13.7 2.42q.08.75.08 1.52h3.94q0-.99-.1-1.95zM22.88 15a8 8 0 0 1-2.44 5.7l2.72 2.85A11.8 11.8 0 0 0 26.82 15zm-1.05-3.93A8 8 0 0 1 22.88 15h3.94c0-2.15-.58-4.17-1.58-5.9zm2.03-2.96h-.37l.09 3.94h.28zm6.19 1.26a16 16 0 0 0-6.19-1.26v3.94q2.5.01 4.64.94zm1.7 5.63q0-2.25-.57-4.33l-3.81 1.02A13 13 0 0 1 27.8 15zm-9.69 15.18A16.7 16.7 0 0 0 31.74 15H27.8a12.8 12.8 0 0 1-7.4 11.61zm-2.14-6.32q0 2.09-.58 3.97l3.78 1.13a18 18 0 0 0 .74-5.1zM15 2.2a12.8 12.8 0 0 1 11.61 7.4l3.57-1.66A16.7 16.7 0 0 0 15-1.74zm-3.31.43A13 13 0 0 1 15 2.2v-3.94q-2.25.01-4.33.56zm.36 3.5q.01-2.47.94-4.63L9.37-.05A16 16 0 0 0 8.1 6.14zm0 .3v-.3H8.1l.01.38zM15 3.17c-2.15 0-4.17.58-5.9 1.58l1.96 3.41A8 8 0 0 1 15 7.12zm8.55 3.66A11.8 11.8 0 0 0 15 3.18v3.94a8 8 0 0 1 5.7 2.44zm.31-.7q-.98 0-1.95.1l.43 3.92q.75-.08 1.52-.08zm5.1.74a18 18 0 0 0-5.1-.74v3.94q2.09 0 3.97.58z"/></g></g><defs><clipPath id="a"><path fill="#fff" d="M0 0h30v30H0z"/></clipPath></defs></svg>