<svg width="30" height="30" viewBox="0 0 30 30" fill="none" xmlns="http://www.w3.org/2000/svg">
<g clip-path="url(#clip0_2047_868)">
<path d="M15 10.5707C15.5711 10.567 16.1381 10.6663 16.6739 10.8638C15.7246 9.73703 14.4517 8.92949 13.0279 8.55071C11.6041 8.17193 10.0982 8.24025 8.71451 8.74639C7.33082 9.25254 6.13628 10.172 5.29292 11.3801C4.44956 12.5882 3.99818 14.0265 4.00001 15.4999C4.00946 18.3909 5.1567 21.162 7.19355 23.2137C6.52895 21.8823 6.21533 20.4031 6.28241 18.9165C6.3495 17.4299 6.79506 15.985 7.57687 14.7188C8.35869 13.4526 9.45087 12.407 10.7499 11.6811C12.049 10.9552 13.5119 10.573 15 10.5707Z" fill="white"/>
<path d="M19.9292 15.5C19.9329 16.0711 19.8336 16.6381 19.6361 17.1739C20.7628 16.2246 21.5704 14.9517 21.9492 13.5279C22.3279 12.1041 22.2596 10.5982 21.7535 9.21451C21.2473 7.83082 20.3278 6.63628 19.1197 5.79292C17.9116 4.94956 16.4734 4.49818 15 4.50001C12.1093 4.51112 9.33878 5.65811 7.28613 7.69355C8.61761 7.02895 10.0967 6.71533 11.5833 6.78241C13.07 6.8495 14.5148 7.29506 15.781 8.07687C17.0472 8.85869 18.0928 9.95087 18.8188 11.2499C19.5447 12.549 19.9269 14.0119 19.9292 15.5Z" fill="white"/>
<path d="M22.8064 7.74756C23.4777 9.08071 23.7967 10.5634 23.733 12.0547C23.6694 13.546 23.2252 14.9961 22.4427 16.2672C21.6603 17.5383 20.5656 18.588 19.2628 19.3165C17.9601 20.045 16.4926 20.4281 15 20.4292C14.4292 20.4291 13.8628 20.3299 13.326 20.1361C14.2749 21.2623 15.5471 22.0697 16.9702 22.4487C18.3933 22.8276 19.8985 22.76 21.2818 22.2548C22.6652 21.7496 23.8598 20.8314 24.7037 19.6245C25.5477 18.4176 26.0002 16.9804 26 15.5077C25.9889 12.617 24.8419 9.84649 22.8064 7.79384" fill="white"/>
<path d="M10.0708 15.5C10.0717 14.9268 10.1708 14.358 10.364 13.8184C9.23905 14.7685 8.43303 16.0412 8.05487 17.4643C7.6767 18.8873 7.74462 20.3922 8.24945 21.7755C8.75428 23.1587 9.67167 24.3536 10.8776 25.1985C12.0835 26.0435 13.5198 26.4978 14.9923 26.5C17.8833 26.4905 20.6545 25.3433 22.7062 23.3064C21.3748 23.967 19.897 24.2775 18.4123 24.2085C16.9276 24.1395 15.485 23.6933 14.2206 22.9122C12.9562 22.131 11.9116 21.0405 11.1856 19.7436C10.4595 18.4467 10.0759 16.9863 10.0708 15.5Z" fill="white"/>
</g>
<defs>
<clipPath id="clip0_2047_868">
<rect width="22" height="22" fill="white" transform="translate(4 4.5)"/>
</clipPath>
</defs>
</svg>
