<svg width="30" height="30" fill="none" viewBox="0 0 30 30"><path fill="#fff" d="M15.03 26.5C11.7 26.5 6 25.85 6 23.43q0-1.22 1.9-2a.75.75 0 0 1 .98.42.8.8 0 0 1-.42 1c-.83.34-.96.61-.96.62.2.48 2.99 1.5 7.53 1.5s7.3-1.01 7.53-1.57a3 3 0 0 0-.95-.55.76.76 0 0 1-.4-.98.76.76 0 0 1 .96-.45q1.9.79 1.9 2.01c0 2.42-5.7 3.06-9.04 3.06"/><path fill="#fff" d="M10.86 23.4h-.08a.8.8 0 0 1-.65-.55 1 1 0 0 1-.02-.3l1.81-17a2.3 2.3 0 0 1 .73-1.45c.41-.38.95-.6 1.51-.6h1.74a2.24 2.24 0 0 1 2.24 2.09l1.71 16.98a.8.8 0 0 1-.39.74.75.75 0 0 1-1.02-.3 1 1 0 0 1-.09-.28l-1.7-17.01a.76.76 0 0 0-.75-.69h-1.74a.75.75 0 0 0-.74.68l-1.82 17a.76.76 0 0 1-.74.68"/></svg>