<svg width="30" height="30" fill="none" viewBox="0 0 30 30"><g fill="#fff" clip-path="url(#a)"><path d="M24.75 23.04c.22-5.63.66-16.14.7-16.47h-.06q.45-.19.45-.42c0-.8-3.67-1.2-10.92-1.2S4 5.36 4 6.15q0 .24.46.43l1.38 16.5c-.1.13-.27.28-.42.44-.57.55-.83.83-.73 1.1.22.7 1.62 1.42 10.4 1.42 9.9 0 10.52-.85 10.83-1.27.13-.17.3-.38-1.17-1.72m-9.83-17.2c3.71 0 6.37.14 7.91.29-1.52.15-4.2.29-7.9.29S8.56 6.29 7 6.13c1.53-.14 4.2-.28 7.91-.28m0 1.47a85 85 0 0 0 9.51-.37c-.05 1.08-.21 4.54-.67 15.83a67 67 0 0 1-8.84.5 67 67 0 0 1-8.11-.42L5.47 6.98q4.72.43 9.45.34m.16 17.81c-7.59 0-9.22-.64-9.33-.7a6 6 0 0 1 .51-.56l.28-.24q4.18.56 8.38.55 4.56.03 9.08-.57.44.4.8.86c-.33.17-2.45.66-9.74.66"/><path d="M9.82 8.58a.2.2 0 0 0-.16.07.22.22 0 0 0 0 .32.2.2 0 0 0 .16.06h1.31a.2.2 0 0 0 .16-.06.22.22 0 0 0 0-.32.2.2 0 0 0-.16-.07zm1.31.9H9.82a.7.7 0 0 1-.45-.22.67.67 0 0 1 0-.91.7.7 0 0 1 .45-.22h1.31a.7.7 0 0 1 .53.18.7.7 0 0 1 .22.5.7.7 0 0 1-.22.5.7.7 0 0 1-.53.16m-1.31 1.54a.2.2 0 0 0-.16.06.22.22 0 0 0 0 .32.2.2 0 0 0 .16.07h1.31a.2.2 0 0 0 .16-.07.22.22 0 0 0-.16-.38zm1.31.9H9.82a.7.7 0 0 1-.48-.2.66.66 0 0 1 0-.95.7.7 0 0 1 .48-.2h1.31q.29 0 .48.2a.66.66 0 0 1 0 .95.7.7 0 0 1-.48.2m-1.31 1.53a.2.2 0 0 0-.16.07.22.22 0 0 0 0 .32.2.2 0 0 0 .16.06h1.31a.2.2 0 0 0 .16-.06.22.22 0 0 0-.16-.39zm1.31.9H9.82a.7.7 0 0 1-.45-.21.67.67 0 0 1 0-.91.7.7 0 0 1 .45-.22h1.31a.7.7 0 0 1 .53.17.7.7 0 0 1 .22.5.7.7 0 0 1-.22.5.7.7 0 0 1-.53.17m-1.31 1.53a.2.2 0 0 0-.24.12.2.2 0 0 0 .06.27.2.2 0 0 0 .18.05h1.31a.2.2 0 0 0 .19-.05.2.2 0 0 0 .08-.17.2.2 0 0 0-.08-.17.2.2 0 0 0-.19-.06zm1.31.89H9.82a.7.7 0 0 1-.45-.22.7.7 0 0 1 0-.9.7.7 0 0 1 .45-.22h1.31a.7.7 0 0 1 .53.17.7.7 0 0 1 .22.5.7.7 0 0 1-.22.5.7.7 0 0 1-.53.17m-1.31 1.53a.2.2 0 0 0-.24.13.2.2 0 0 0 .06.26.2.2 0 0 0 .18.06h1.31a.2.2 0 0 0 .24-.13.2.2 0 0 0-.05-.27.2.2 0 0 0-.19-.05zm1.31.9H9.82a.7.7 0 0 1-.45-.22.67.67 0 0 1 0-.91.7.7 0 0 1 .45-.22h1.31a.7.7 0 0 1 .53.18.7.7 0 0 1 .22.5.7.7 0 0 1-.22.49.7.7 0 0 1-.53.17m-1.31 1.54a.2.2 0 0 0-.22.13l-.02.08q0 .1.07.16a.2.2 0 0 0 .16.07h1.31a.2.2 0 0 0 .17-.07.22.22 0 0 0 0-.32.2.2 0 0 0-.17-.06zm1.31.89H9.82a.7.7 0 0 1-.45-.21.67.67 0 0 1 0-.92.7.7 0 0 1 .45-.21h1.31a.7.7 0 0 1 .53.17.7.7 0 0 1 .22.5.7.7 0 0 1-.22.5.7.7 0 0 1-.53.17"/></g><defs><clipPath id="a"><path fill="#fff" d="M4 4.96h22v21.07H4z"/></clipPath></defs></svg>