<svg width="30" height="30" viewBox="0 0 30 30" fill="none" xmlns="http://www.w3.org/2000/svg">
<g clip-path="url(#clip0_2048_887)">
<path d="M23.0289 5.39908L23.0772 7.81993C23.0896 8.28197 23.0107 8.7419 22.8449 9.17319C22.679 9.60448 22.4296 9.99859 22.111 10.3328L18.9854 13.5864C18.8316 13.7443 18.7319 13.9472 18.7007 14.1656C18.6694 14.384 18.7082 14.6068 18.8115 14.8017L19.9178 16.9223C19.9872 17.0549 20.0115 17.2065 19.9871 17.3542C19.9627 17.5019 19.8909 17.6375 19.7825 17.7406L17.884 19.532C17.7877 19.6233 17.6671 19.6846 17.5368 19.7087C17.4065 19.7327 17.272 19.7185 17.1497 19.6676L14.8356 18.6992C14.6522 18.6143 14.4468 18.5892 14.2483 18.6274C14.0499 18.6656 13.8684 18.7653 13.7294 18.9123L9.47331 23.2214L8.41534 25.1677C8.34803 25.2926 8.24355 25.3934 8.11643 25.456C7.98932 25.5186 7.84589 25.5399 7.70611 25.517C7.56633 25.4941 7.43716 25.4281 7.33655 25.3282C7.23595 25.2283 7.16893 25.0994 7.14481 24.9595L6.77283 22.7711C6.67752 22.2178 6.71547 21.6497 6.88353 21.1141C7.05159 20.5784 7.34489 20.0908 7.73901 19.6918L11.169 16.2735C11.3025 16.1412 11.3946 15.9727 11.4341 15.7886C11.4735 15.6046 11.4586 15.4131 11.3912 15.2374L10.4588 12.7681C10.4125 12.6446 10.4029 12.5102 10.4312 12.3814C10.4595 12.2525 10.5245 12.1345 10.6182 12.0419L12.2801 10.3667C12.3786 10.2693 12.5041 10.2039 12.6402 10.1789C12.7763 10.1539 12.9167 10.1704 13.0434 10.2263L15.1207 11.1559C15.3145 11.2432 15.5303 11.2691 15.7392 11.2302C15.9481 11.1912 16.1402 11.0893 16.2897 10.938L20.6086 6.58046L21.7825 5.02143C21.8638 4.90028 21.9817 4.80844 22.1189 4.7594C22.2561 4.71035 22.4054 4.70669 22.5449 4.74894C22.6843 4.79119 22.8065 4.87713 22.8937 4.99414C22.9808 5.11116 23.0282 5.25308 23.0289 5.39908Z" stroke="white" stroke-width="0.953676" stroke-miterlimit="10"/>
<path d="M16.1836 14.8841C16.1836 15.139 16.1081 15.3882 15.9667 15.6001C15.8253 15.812 15.6243 15.9771 15.3892 16.0744C15.1541 16.1717 14.8955 16.197 14.6461 16.1469C14.3967 16.0968 14.1677 15.9736 13.9882 15.793C13.8087 15.6124 13.6867 15.3825 13.6376 15.1324C13.5886 14.8822 13.6147 14.6231 13.7127 14.3879C13.8107 14.1526 13.9762 13.9518 14.1881 13.8109C14.4001 13.67 14.649 13.5952 14.9034 13.5962C15.0719 13.5962 15.2388 13.6295 15.3944 13.6943C15.55 13.7591 15.6914 13.8541 15.8103 13.9737C15.9293 14.0934 16.0235 14.2354 16.0875 14.3916C16.1516 14.5478 16.1842 14.7152 16.1836 14.8841Z" fill="white"/>
</g>
<defs>
<clipPath id="clip0_2048_887">
<rect width="17.802" height="22.2524" fill="white" transform="translate(6 4)"/>
</clipPath>
</defs>
</svg>
