<svg width="30" height="30" fill="none" viewBox="0 0 30 30"><path fill="#fff" d="M12.98 22.78a.5.5 0 0 1-.2.36.5.5 0 0 1-.38.11c-4.98-.7-8.4-3.1-8.4-5.95 0-3.45 4.97-6.15 11.33-6.15s11.32 2.7 11.32 6.15c0 2.82-3.21 5.13-8.04 5.9a.6.6 0 0 1-.4-.11.6.6 0 0 1-.2-.35l-.03-.2a.6.6 0 0 1 .11-.39.6.6 0 0 1 .34-.21c4.06-.66 6.96-2.57 6.96-4.64 0-2.64-4.6-4.88-10.06-4.88S5.26 14.68 5.26 17.3c0 2.12 3.1 4.09 7.29 4.69q.2.04.33.2t.13.36z"/><path fill="#fff" d="M10.7 18.72a.6.6 0 0 0-.23.42.7.7 0 0 0 .12.47l1.54 2.32a.65.65 0 0 1-.16.93l-2.15 1.97a.6.6 0 0 0-.27.4.7.7 0 0 0 .1.48.6.6 0 0 0 .86.19l3.28-2.72a.6.6 0 0 0 .28-.43.7.7 0 0 0-.12-.49l-2.36-3.39a.6.6 0 0 0-.42-.24.6.6 0 0 0-.46.12M9.99 8.41a.6.6 0 0 1 .33.1q.32.27.72.27a1 1 0 0 0 .68-.3 1 1 0 0 0 .25-.7.8.8 0 0 0-.23-.63.8.8 0 0 0-.61-.24c-.34 0-.46.13-.74.13a.4.4 0 0 1-.27-.13l-.08-.14q-.02-.07-.01-.15a.5.5 0 0 1 .17-.36l1.18-1.31H9.87a.4.4 0 0 1-.31-.13.4.4 0 0 1-.12-.32.4.4 0 0 1 .26-.4l.17-.02h2.34a.4.4 0 0 1 .35.13.4.4 0 0 1 .12.35.6.6 0 0 1-.19.38l-1.02 1.13a1.55 1.55 0 0 1 1.43 1.65c0 1.13-.8 1.85-2.03 1.85a2 2 0 0 1-1.03-.25.5.5 0 0 1-.28-.42.5.5 0 0 1 .13-.33.5.5 0 0 1 .32-.16m5.4.31a1 1 0 0 0 .63-.29 1 1 0 0 0 .24-.65 1 1 0 0 0-.22-.69 1 1 0 0 0-.64-.29 1 1 0 0 0-.65.3 1 1 0 0 0-.22.68 1 1 0 0 0 .24.65 1 1 0 0 0 .62.3m0 .84c-1.1 0-1.79-1.02-1.79-2.11 0-.89.38-2.82 2.3-3.39h.18a.4.4 0 0 1 .33.1.4.4 0 0 1 .13.33.5.5 0 0 1-.4.49 2 2 0 0 0-.9.5q-.38.33-.59.82.38-.32.87-.33.7.06 1.18.57c.3.33.48.77.49 1.23a1.8 1.8 0 0 1-.53 1.27 1.8 1.8 0 0 1-1.25.52m4.4-.93c.64 0 1.05-.6 1.05-1.85s-.41-1.86-1.05-1.86c-.63 0-1.04.61-1.04 1.86 0 1.24.4 1.85 1.04 1.85m0 .93c-1.31 0-2.03-1.12-2.03-2.78S18.52 4 19.83 4s2.04 1.13 2.04 2.79c0 1.65-.73 2.78-2.04 2.78m3.97-3.25c.31 0 .48-.35.48-.8s-.16-.82-.48-.82-.49.34-.49.81.18.81.5.81m0 .7a1.4 1.4 0 0 1-.94-.5 1.4 1.4 0 0 1-.32-1 1.3 1.3 0 0 1 .27-1.07A1.3 1.3 0 0 1 23.8 4a1.3 1.3 0 0 1 .98.46 1.3 1.3 0 0 1 .26 1.06 1.4 1.4 0 0 1-.3 1.01 1.4 1.4 0 0 1-.94.5"/></svg>