<svg xmlns="http://www.w3.org/2000/svg" width="30" height="30" fill="none" viewBox="0 0 30 30"><g clip-path="url(#a)"><path stroke="#fff" stroke-linejoin="round" stroke-width="1.705" d="M7.313 2.15c.002-.553.452-1.014 1.053-1.014h13.342c.601 0 1.051.46 1.054 1.014.015 3.37-.123 10.17-1.277 16.101-.579 2.976-1.396 5.64-2.519 7.534-1.119 1.887-2.41 2.814-3.929 2.814s-2.81-.927-3.929-2.814c-1.122-1.894-1.94-4.558-2.519-7.534C7.435 12.32 7.297 5.52 7.313 2.15Z"/><path stroke="#fff" stroke-width="1.705" d="M7.347 13.769h15.379"/><path fill="#fff" d="M11.741 6.629a1.098 1.098 0 1 0 0-2.197 1.098 1.098 0 0 0 0 2.197M15.036 6.629a1.098 1.098 0 1 0 0-2.197 1.098 1.098 0 0 0 0 2.197M11.741 9.924a1.098 1.098 0 1 0 0-2.197 1.098 1.098 0 0 0 0 2.197M18.332 6.629a1.098 1.098 0 1 0 0-2.197 1.098 1.098 0 0 0 0 2.197M15.036 9.924a1.098 1.098 0 1 0 0-2.197 1.098 1.098 0 0 0 0 2.197M11.741 18.712a1.099 1.099 0 1 0 0-2.197 1.099 1.099 0 0 0 0 2.197M15.036 18.712a1.099 1.099 0 1 0 0-2.197 1.099 1.099 0 0 0 0 2.197M18.332 18.712a1.099 1.099 0 1 0 0-2.197 1.099 1.099 0 0 0 0 2.197M13.389 22.008a1.098 1.098 0 1 0 0-2.197 1.098 1.098 0 0 0 0 2.197M16.684 22.008a1.098 1.098 0 1 0 0-2.197 1.098 1.098 0 0 0 0 2.197M15.036 25.303a1.098 1.098 0 1 0 0-2.197 1.098 1.098 0 0 0 0 2.197M18.332 9.924a1.098 1.098 0 1 0 0-2.197 1.098 1.098 0 0 0 0 2.197"/></g><defs><clipPath id="a"><path fill="#fff" d="M0 0h30v30H0z"/></clipPath></defs></svg>