<svg width="30" height="30" fill="none" viewBox="0 0 30 30"><path fill="#fff" d="m15.99 14.9.15-.33q.31-.79.97-1.34a3 3 0 0 1 1.9-.6 3 3 0 0 1 1.76.55q.76.53 1.03 1.42l.08.3zm7.76 1.19a5 5 0 0 0-1.35-3.64 4.7 4.7 0 0 0-3.5-1.36 4.6 4.6 0 0 0-3.38 1.36 4.8 4.8 0 0 0-1.35 3.46 4.6 4.6 0 0 0 1.35 3.37 4.8 4.8 0 0 0 3.5 1.35 5.5 5.5 0 0 0 2.4-.51 4.5 4.5 0 0 0 1.55-1.28l-1.63-.76c-.64.59-1.49.9-2.36.9a3 3 0 0 1-1.97-.65 2.8 2.8 0 0 1-.97-1.75l-.05-.29h7.76zm-11.54-3.24H8.22v-2.8h3.99V8.11H6.25v12.4h1.97v-5.79h3.99z"/></svg>