<svg xmlns="http://www.w3.org/2000/svg" width="30" height="30" fill="none" viewBox="0 0 30 30"><path fill="#fff" d="m15.987 14.898.153-.332c.205-.52.538-.98.969-1.337a3.12 3.12 0 0 1 1.9-.592 3 3 0 0 1 1.764.54c.492.345.853.845 1.025 1.42l.087.3zm7.763 1.189a4.96 4.96 0 0 0-1.348-3.634 4.72 4.72 0 0 0-3.51-1.368 4.55 4.55 0 0 0-3.372 1.368 4.78 4.78 0 0 0-1.348 3.455 4.58 4.58 0 0 0 1.348 3.369 4.76 4.76 0 0 0 3.505 1.348 5.5 5.5 0 0 0 2.404-.51 4.5 4.5 0 0 0 1.537-1.277l-1.625-.755c-.644.582-1.487.899-2.357.888a3.04 3.04 0 0 1-1.973-.638 2.76 2.76 0 0 1-.973-1.756l-.052-.286h7.759zM12.205 12.846H8.223v-2.802h3.982v-1.92H6.25v12.398h1.973v-5.788h3.982z"/></svg>