<svg width="30" height="30" fill="none" viewBox="0 0 30 30"><path fill="#fff" d="M17.8 19.2v.98h-.91V18.7c-1.73-.92-1.4-1.23-1.4.8l1.29.74c-.51.98-.4.76-1.3.27v1.15h-.9v-1.13l-.46.25-.45.24-.45-.75 1.32-.76V17.9l-1.4.81v1.48h-.91v-.96l-1.02.57-.22-.4a2 2 0 0 1-.2-.39l.98-.56c-.82-.52-1.11-.24-.43-1.23 0 0 1.36.76 1.36.74 1.26-.89 2.21-.47 0-1.63-.2.11-1.36.77-1.31.73.04-.05-.45-.73-.45-.74 1.16-.67.9-.4-.18-1.07 0 0 .46-.78.46-.75l.49.27.5.28v-1h.9v1.52l1.47.82v-1.66l-1.33-.75c.53-.98.36-.78 1.32-.26V12.6h.9v1.14c.98-.55.78-.66 1.31.27l-1.3.74c.02 2.1-.35 1.77 1.45.82v-1.5h.9v1l.49-.28.48-.28q.24.37.45.75c-.86.62-1.46.35-.14 1.06l-.45.75-1.31-.73c.02.02-1.43.81-1.43.84l1.41.8c-.2.14 1.43-.8 1.36-.74l.45.75c-1.26.66-.84.44.1 1.06-.52 1.08-.45.7-1.43.2M15 5.62s-5.26 8.1-5.26 11.44 2.35 6.05 5.25 6.05 5.25-2.7 5.25-6.05S15 5.62 15 5.62"/></svg>