<svg xmlns="http://www.w3.org/2000/svg" width="30" height="30" fill="none" viewBox="0 0 30 30"><path fill="#fff" d="M14.66 8.398H9.934a.52.52 0 0 0-.524.303.5.5 0 0 0 0 .418.51.51 0 0 0 .524.303h4.726a.52.52 0 0 0 .525-.303.5.5 0 0 0 0-.418.51.51 0 0 0-.525-.303M14.66 11.548H9.934a.52.52 0 0 0-.524.303.5.5 0 0 0-.044.209.51.51 0 0 0 .36.465.5.5 0 0 0 .208.021h4.726a.52.52 0 0 0 .517-.285.5.5 0 0 0 .051-.201.51.51 0 0 0-.354-.489.5.5 0 0 0-.214-.023M14.66 14.892H9.934a.52.52 0 0 0-.614.258.51.51 0 0 0 .375.737q.122.02.24-.016h4.725a.52.52 0 0 0 .614-.258.51.51 0 0 0-.375-.736.5.5 0 0 0-.239.015M12.734 18.237H9.929a.52.52 0 0 0-.614.258.51.51 0 0 0 .155.644.52.52 0 0 0 .46.076h2.804a.52.52 0 0 0 .614-.258.51.51 0 0 0-.375-.736.5.5 0 0 0-.24.016"/><path fill="#fff" d="M25.94 17.479v-6.735a2.12 2.12 0 0 0-.65-1.358c-.393-.327-2.784-1.756-3.616-2.238V4.5H4l1.839 2.151v12.657c0 1.48 3.357 6.192 3.357 6.192h10.391a29 29 0 0 0 1.788-3.672c.94-.554 3.383-2.008 3.785-2.392.47-.55.745-1.237.78-1.957m-7.04 6.915H9.81c-1.404-2.05-2.804-4.436-2.82-5.086V6.65c.001-.255-.09-.502-.258-.696l-.3-.349h14.096v14.91c0 .564-.796 2.341-1.638 3.878m5.888-6.915c-.035.424-.189.83-.444 1.173-.18.174-1.358.912-2.655 1.685V8.45c1.343.804 2.64 1.598 2.841 1.767.14.16.23.358.258.569z"/></svg>