<svg width="30" height="30" viewBox="0 0 30 30" fill="none" xmlns="http://www.w3.org/2000/svg">
<g clip-path="url(#clip0_67_3698)">
<path d="M7.3126 2.15004C7.31513 1.59681 7.7654 1.13647 8.36649 1.13647H21.708C22.309 1.13647 22.7593 1.59681 22.7618 2.15004C22.7773 5.51958 22.6392 12.3196 21.4853 18.2513C20.9064 21.2269 20.0885 23.8911 18.9662 25.7845C17.8472 27.6724 16.5562 28.5986 15.0373 28.5986C13.5182 28.5986 12.2273 27.6724 11.1082 25.7845C9.98587 23.8911 9.16805 21.2269 8.58915 18.2513C7.43519 12.3196 7.29711 5.51958 7.3126 2.15004Z" stroke="white" stroke-width="1.70455" stroke-linejoin="round"/>
<path d="M7.34668 13.7688H22.7255" stroke="white" stroke-width="1.70455"/>
<path d="M11.7411 6.62885C12.3477 6.62885 12.8395 6.13705 12.8395 5.53037C12.8395 4.92369 12.3477 4.43188 11.7411 4.43188C11.1344 4.43188 10.6426 4.92369 10.6426 5.53037C10.6426 6.13705 11.1344 6.62885 11.7411 6.62885Z" fill="white"/>
<path d="M15.036 6.62885C15.6427 6.62885 16.1345 6.13705 16.1345 5.53037C16.1345 4.92369 15.6427 4.43188 15.036 4.43188C14.4293 4.43188 13.9375 4.92369 13.9375 5.53037C13.9375 6.13705 14.4293 6.62885 15.036 6.62885Z" fill="white"/>
<path d="M11.7411 9.92402C12.3477 9.92402 12.8395 9.43221 12.8395 8.82554C12.8395 8.21886 12.3477 7.72705 11.7411 7.72705C11.1344 7.72705 10.6426 8.21886 10.6426 8.82554C10.6426 9.43221 11.1344 9.92402 11.7411 9.92402Z" fill="white"/>
<path d="M18.3319 6.62885C18.9386 6.62885 19.4304 6.13705 19.4304 5.53037C19.4304 4.92369 18.9386 4.43188 18.3319 4.43188C17.7252 4.43188 17.2334 4.92369 17.2334 5.53037C17.2334 6.13705 17.7252 6.62885 18.3319 6.62885Z" fill="white"/>
<path d="M15.036 9.92402C15.6427 9.92402 16.1345 9.43221 16.1345 8.82554C16.1345 8.21886 15.6427 7.72705 15.036 7.72705C14.4293 7.72705 13.9375 8.21886 13.9375 8.82554C13.9375 9.43221 14.4293 9.92402 15.036 9.92402Z" fill="white"/>
<path d="M11.7411 18.7124C12.3477 18.7124 12.8395 18.2205 12.8395 17.6139C12.8395 17.0072 12.3477 16.5154 11.7411 16.5154C11.1344 16.5154 10.6426 17.0072 10.6426 17.6139C10.6426 18.2205 11.1344 18.7124 11.7411 18.7124Z" fill="white"/>
<path d="M15.036 18.7124C15.6427 18.7124 16.1345 18.2205 16.1345 17.6139C16.1345 17.0072 15.6427 16.5154 15.036 16.5154C14.4293 16.5154 13.9375 17.0072 13.9375 17.6139C13.9375 18.2205 14.4293 18.7124 15.036 18.7124Z" fill="white"/>
<path d="M18.3319 18.7124C18.9386 18.7124 19.4304 18.2205 19.4304 17.6139C19.4304 17.0072 18.9386 16.5154 18.3319 16.5154C17.7252 16.5154 17.2334 17.0072 17.2334 17.6139C17.2334 18.2205 17.7252 18.7124 18.3319 18.7124Z" fill="white"/>
<path d="M13.3885 22.0078C13.9952 22.0078 14.487 21.516 14.487 20.9093C14.487 20.3026 13.9952 19.8108 13.3885 19.8108C12.7818 19.8108 12.29 20.3026 12.29 20.9093C12.29 21.516 12.7818 22.0078 13.3885 22.0078Z" fill="white"/>
<path d="M16.6844 22.0078C17.2911 22.0078 17.7829 21.516 17.7829 20.9093C17.7829 20.3026 17.2911 19.8108 16.6844 19.8108C16.0777 19.8108 15.5859 20.3026 15.5859 20.9093C15.5859 21.516 16.0777 22.0078 16.6844 22.0078Z" fill="white"/>
<path d="M15.036 25.3029C15.6427 25.3029 16.1345 24.8111 16.1345 24.2044C16.1345 23.5978 15.6427 23.106 15.036 23.106C14.4293 23.106 13.9375 23.5978 13.9375 24.2044C13.9375 24.8111 14.4293 25.3029 15.036 25.3029Z" fill="white"/>
<path d="M18.3319 9.92402C18.9386 9.92402 19.4304 9.43221 19.4304 8.82554C19.4304 8.21886 18.9386 7.72705 18.3319 7.72705C17.7252 7.72705 17.2334 8.21886 17.2334 8.82554C17.2334 9.43221 17.7252 9.92402 18.3319 9.92402Z" fill="white"/>
</g>
<defs>
<clipPath id="clip0_67_3698">
<rect width="30" height="30" fill="white"/>
</clipPath>
</defs>
</svg>
