<svg width="30" height="30" fill="none" viewBox="0 0 30 30"><g clip-path="url(#a)"><g clip-path="url(#b)"><path stroke="#fff" stroke-width="1.71" d="m10.68 13.06.47-.28v-.55l.11-6.43 2.37-.63 3.31 5.51.28.47.55.01 6.42.1.64 2.38-5.51 3.3-.47.28-.01.55-.1 6.43-2.38.63-3.3-5.51-.28-.47-.55-.01-6.43-.1-.63-2.38z"/><path fill="#fff" d="M15 16.97a1.97 1.97 0 1 0 0-3.94 1.97 1.97 0 0 0 0 3.94"/><path stroke="#fff" stroke-width="1.71" d="M15 28.79A13.79 13.79 0 1 0 15 1.2a13.79 13.79 0 0 0 0 27.58Z"/></g></g><defs><clipPath id="a"><path fill="#fff" d="M0 0h30v30H0z"/></clipPath><clipPath id="b"><path fill="#fff" d="M0 0h30v30H0z"/></clipPath></defs></svg>