<svg xmlns="http://www.w3.org/2000/svg" width="30" height="30" fill="none" viewBox="0 0 30 30"><g fill="#fff" clip-path="url(#a)"><path d="M15 13.533a1.467 1.467 0 1 1 0 2.934 1.467 1.467 0 0 1 0-2.934"/><path d="M15 5.467A9.533 9.533 0 1 0 24.533 15 9.544 9.544 0 0 0 15 5.467M15 26a11 11 0 1 1 11-11 11.017 11.017 0 0 1-11 11"/><path d="m8.513 16.974 5.252.085 2.696 4.513.728-.198.084-5.246 4.513-2.702-.192-.722-5.251-.09L13.646 8.1l-.728.192-.095 5.297-4.513 2.702zm7.232 6.38-2.855-4.766-5.55-.09-.79-2.945 4.783-2.86.09-5.551 2.95-.79 2.855 4.761 5.551.096.773 2.945-4.767 2.854-.09 5.557z"/></g><defs><clipPath id="a"><path fill="#fff" d="M4 4h22v22H4z"/></clipPath></defs></svg>