<svg width="30" height="30" fill="none" viewBox="0 0 30 30"><g fill="#fff" clip-path="url(#a)"><path d="M10.12 6.62a2 2 0 0 1 .88 0 1.2 1.2 0 0 1 .87.85l.13.38.25.73.84 2.47.03-.03.01-.02h.01a1.8 1.8 0 0 1 1.15-.5c.93.02 1.24.54 1.35.65l.02-.06a1.6 1.6 0 0 1 1.78-.6q.35.11.62.36l.02.02.02.03q.18.31.33.64l.13-.14a1.7 1.7 0 0 1 1.43-.35 1.2 1.2 0 0 1 .86.73l.01.04v.1q.4 1.25.7 2.39.21.88.47 1.72l.18.56v.02l.45 2.02.35 1.7.03.27a1.3 1.3 0 0 1-.15.86q.15.14.21.34l.01.01v.02l.25 1.34.04.26h-.03a.9.9 0 0 1-.58.76l-5.13 1.57-.03.01h-.23a.9.9 0 0 1-.81-.57l-.61-.98-.01-.01-.01-.02a1 1 0 0 1-.07-.34v-.06a1 1 0 0 1-.38-.18l-.01-.01-.01-.01a63 63 0 0 1-2-2.33 30 30 0 0 1-1.28-1.68 6 6 0 0 1-.78-1.37l-.07-.23-.03-.11c-.06-.26 0-.52.1-.74q.17-.4.36-.7l.05-.08a86 86 0 0 0-1.38-4.18l-.5-1.32-.9-2.64q-.02-.47.08-.85.07-.17.2-.3v-.01l.18-.14a2 2 0 0 1 .6-.29m6.96 18.85h.01l-.07-.04zm-.96-1.49.04.13.62.99-.62-1-.05-.25zm1.1 1.1-.04-.06zm-.5-1.25.62 1v.02l.02.03.05.08h.01l5.1-1.56v-.02l-.01-.02-.23-1.27h-.03zm5.89-.22.04-.02.02-.02zM10.66 7.4l-.02.01h-.03a1 1 0 0 0-.6.18l-.06.06h-.01v.02a.3.3 0 0 0-.02.17l.01.05v.01l.01.01q.42 1.31.85 2.5l.28.82.04.1.05.17.06.17.07.2.73 2.11q.36 1.08.7 2.24l.01.03v.24l-.03.05-.07.12-.1.17v.01l-.3.52-.07.22v.13l.07.23.07.18q.15.3.46.78.43.63 1.02 1.37a60 60 0 0 0 2.25 2.66l.3-.1h.01c1.17-.36 4.18-1.34 5.7-1.8q.04-.04.05-.4a36 36 0 0 0-.82-3.82c-.25-.72-.46-1.55-.66-2.28a49 49 0 0 0-.7-2.4l-.01-.03v-.06a.4.4 0 0 0-.24-.19.8.8 0 0 0-.7.18l-.11.15.01.1.12.65.08.24.08.23-.23.06-.64.15-.2.05-.06-.2-.12-.48a13 13 0 0 0-.53-1.67l-.2-.11a.8.8 0 0 0-.88.3q.13 1.06.47 2.07l.07.2.08.2-.22.07-.61.2-.25.09-.04-.26-.02-.12-.07-.18-.68-2-.06-.13v-.01l-.02-.03a.4.4 0 0 0-.23-.25l-.1-.03h-.01a1 1 0 0 0-.8.21v.02l-.01.05v.14l.01.06.03.08v.02l.4 1.38.17.6.05.17.02.05v.01l.06.19.06.2-.2.07-.6.2-.19.06-.08-.2-.07-.17-.01-.04v-.04l-.06-.14-.18-.53-.6-1.68-.07-.2-.07-.2v-.01l-.66-1.95q-.35-.95-.54-1.57l-.14-.41v-.02a.4.4 0 0 0-.27-.26zm11.6 14.45h-.04zm-10.62-3.73.1.27.17.3a3 3 0 0 1-.27-.57l-.07-.24zM14 13.33l-.2-.73zm1.58-.6-.36-1.05zm-.11-8.88-.92-.06v-.08h-26.91v7.61l19.3.02v.82H-13.2V2.88h28.67zm3.05 7.93a1 1 0 0 0-.13.26q.05-.14.13-.26m.18.2-.01.03.07-.1zm-8.28-.51v.1zl-.57-1.64zm2.78-.21.1-.12zm-2.34.03-.2-.6-.06-.15zm3.93-.15.12.07zm-1.15-.26-.02.02q.07-.05.15-.08zm.7-.18h.18-.15zM10.3 9.69l.22.63-.51-1.47zM1.99 7.36h4.96v.83H1.99a.4.4 0 0 1-.41-.33V7.7a.4.4 0 0 1 .1-.22l.07-.05a.4.4 0 0 1 .23-.07m7.87-.4.13-.07z"/><path stroke="#fff" stroke-width=".4" d="M8.75 10.18q.37.22.79.34l.1-.39a3 3 0 0 1-.7-.29zm4.57-3.84a3 3 0 0 0-.83-1.22l-.26.33q.52.44.78 1.06zM7.46 7.62q0 .76.35 1.44l.36-.22a3 3 0 0 1-.36-1.27zM8.6 5.36l-.26-.3a3 3 0 0 0-.88 1.17l.36.15q.27-.6.78-1.02Zm1.4-.62a3 3 0 0 1 1.04.06l.1-.4a3 3 0 0 0-1.2 0h-.29l.09.4zm2.92 3.78.37.15q.15-.4.2-.83h-.4a3 3 0 0 1-.17.68Z"/></g><defs><clipPath id="a"><path fill="#fff" d="M7 4h16.61v22H7z"/></clipPath></defs></svg>