<svg xmlns="http://www.w3.org/2000/svg" width="30" height="30" fill="none" viewBox="0 0 30 30"><g clip-path="url(#a)"><mask id="b" width="30" height="30" x="0" y="0" maskUnits="userSpaceOnUse" style="mask-type:luminance"><path fill="#fff" fill-rule="evenodd" d="M.227 15c0-5.932 3.496-11.048 8.54-13.398A15.918 15.918 0 0 0 8.2 7.875 9.82 9.82 0 0 0 5.15 15c0 1.792.48 3.473 1.316 4.92q-.165.004-.33.004a13.7 13.7 0 0 1-5.41-1.101C.4 17.603.226 16.322.226 15M1.6 21.232c2.35 5.044 7.466 8.54 13.398 8.54 1.322 0 2.604-.173 3.823-.499a13.7 13.7 0 0 0 1.098-5.74A9.8 9.8 0 0 1 15 24.85a9.82 9.82 0 0 1-7.126-3.05 16 16 0 0 1-1.738.095c-1.576 0-3.098-.231-4.535-.662m20.293 2.632q-.001-.882-.095-1.74A9.82 9.82 0 0 0 24.848 15a9.8 9.8 0 0 0-1.315-4.92q.165-.004.33-.004c1.922 0 3.75.392 5.41 1.101.325 1.22.499 2.501.499 3.823 0 5.932-3.496 11.048-8.54 13.398.43-1.436.662-2.959.662-4.534m6.503-15.095C26.047 3.724 20.931.227 15 .227c-1.322 0-2.603.174-3.822.5a13.7 13.7 0 0 0-1.098 5.74 9.8 9.8 0 0 1 4.92-1.315 9.82 9.82 0 0 1 7.125 3.05 15.9 15.9 0 0 1 6.273.567" clip-rule="evenodd"/></mask><g mask="url(#b)"><path fill="#fff" d="m8.768 1.602 1.887.566 1.261-4.206-3.98 1.855zm-.567 6.273L9.56 9.3l.704-.672-.106-.968zM6.466 19.92l.047 1.97 3.321-.079-1.662-2.876zm-5.74-1.097-1.903.508.248.927.882.376zm.876 2.408.566-1.886-4.206-1.262 1.854 3.98zm17.22 8.042.51 1.903.926-.247.376-.882zm1.098-5.74 1.97-.046-.079-3.322-2.876 1.663zM7.875 21.799l1.424-1.36-.672-.704-.967.106zm13.924.326-1.36-1.425-.704.672.106.968zm1.734-12.045-.046-1.97-3.322.079 1.663 2.876zm5.74 1.097 1.903-.508-.248-.927-.881-.376zm-8.041 17.22-1.887-.565-1.262 4.206 3.98-1.855zm7.166-19.629-.566 1.887 4.206 1.262-1.855-3.98zM11.177.727l-.508-1.903-.927.247-.377.882zm-1.098 5.74-1.969.046.078 3.322 2.877-1.663zM22.125 8.2 20.7 9.561l.672.704.968-.106zM7.936-.183C2.224 2.478-1.743 8.274-1.743 15h3.94c0-5.138 3.027-9.574 7.403-11.613zm2.14 6.32c0-1.382.202-2.714.579-3.969L6.882 1.036a17.7 17.7 0 0 0-.746 5.1zm.083 1.523q-.083-.75-.084-1.524H6.137q0 .99.107 1.954zM7.12 15a7.85 7.85 0 0 1 2.44-5.7L6.84 6.45A11.8 11.8 0 0 0 3.18 15zm1.05 3.935A7.83 7.83 0 0 1 7.122 15H3.18c0 2.147.575 4.166 1.58 5.906zm-2.035 2.959q.19 0 .377-.005l-.093-3.938q-.141.003-.284.003zm-6.183-1.26a15.7 15.7 0 0 0 6.183 1.26v-3.94a11.8 11.8 0 0 1-4.636-.943zM-1.743 15c0 1.495.197 2.947.566 4.331l3.806-1.017A12.8 12.8 0 0 1 2.197 15zm1.56 7.063c2.66 5.713 8.456 9.68 15.183 9.68v-3.94c-5.139 0-9.574-3.027-11.613-7.403zM15 31.743c1.495 0 2.947-.197 4.331-.567l-1.017-3.806a12.8 12.8 0 0 1-3.314.433zm5.634-1.696a15.7 15.7 0 0 0 1.26-6.183h-3.94c0 1.65-.336 3.216-.943 4.636zm1.26-6.183q0-.19-.004-.377l-3.939.092.003.285zm-2.96-2.036A7.83 7.83 0 0 1 15 22.878v3.94c2.147 0 4.167-.574 5.906-1.58zM15 22.878a7.85 7.85 0 0 1-5.7-2.44L6.45 23.16a11.8 11.8 0 0 0 8.55 3.66zm-7.34-3.037q-.75.083-1.524.083v3.94a18 18 0 0 0 1.954-.107zm-1.524.083c-1.381 0-2.713-.203-3.968-.58l-1.132 3.774a17.7 17.7 0 0 0 5.1.745zm13.705 2.416q.083.75.083 1.524h3.94q-.001-.99-.107-1.954zM22.878 15a7.85 7.85 0 0 1-2.44 5.7l2.721 2.85A11.8 11.8 0 0 0 26.818 15zm-1.05-3.935A7.83 7.83 0 0 1 22.878 15h3.94c0-2.147-.575-4.167-1.58-5.906zm2.035-2.959q-.188 0-.376.004l.092 3.939q.143-.004.284-.004zm6.184 1.26a15.7 15.7 0 0 0-6.184-1.26v3.94c1.651 0 3.217.336 4.637.943zM31.742 15c0-1.495-.196-2.948-.566-4.331l-3.806 1.016A12.8 12.8 0 0 1 27.803 15zm-9.679 15.183c5.713-2.661 9.68-8.457 9.68-15.183h-3.94c0 5.138-3.027 9.573-7.403 11.612zm-2.139-6.32c0 1.382-.203 2.714-.58 3.969l3.774 1.132a17.7 17.7 0 0 0 .746-5.1zM15 2.198c5.138 0 9.573 3.027 11.612 7.403l3.571-1.663C27.522 2.224 21.726-1.743 15-1.743zm-3.315.433A12.8 12.8 0 0 1 15 2.197v-3.94c-1.495 0-2.948.197-4.331.567zm.36 3.506c0-1.65.337-3.216.943-4.636L9.365-.047a15.7 15.7 0 0 0-1.26 6.183zm.004.285q-.004-.143-.004-.285h-3.94a16 16 0 0 0 .005.377zm2.95-3.24c-2.147 0-4.166.575-5.905 1.58l1.97 3.411A7.83 7.83 0 0 1 15 7.122zm8.55 3.66A11.8 11.8 0 0 0 15 3.181v3.94a7.85 7.85 0 0 1 5.7 2.44zm.314-.705q-.988 0-1.953.107l.43 3.916q.75-.083 1.523-.083zm5.1.746a17.7 17.7 0 0 0-5.1-.746v3.94c1.382 0 2.714.203 3.969.579z"/></g></g><defs><clipPath id="a"><path fill="#fff" d="M0 0h30v30H0z"/></clipPath></defs></svg>