<svg width="30" height="30" fill="none" viewBox="0 0 30 30"><g fill="#fff" clip-path="url(#a)"><path d="M15 13.53a1.47 1.47 0 1 1 0 2.94 1.47 1.47 0 0 1 0-2.94"/><path d="M15 5.47A9.53 9.53 0 1 0 24.53 15 9.54 9.54 0 0 0 15 5.47M15 26a11 11 0 1 1 11-11 11 11 0 0 1-11 11"/><path d="m8.51 16.97 5.26.09 2.7 4.51.72-.2.08-5.24 4.52-2.7-.2-.73-5.25-.09-2.7-4.51-.72.2-.1 5.29-4.51 2.7zm7.24 6.38-2.86-4.76-5.55-.1-.79-2.94 4.78-2.86.1-5.55 2.94-.79 2.86 4.76 5.55.1.77 2.94-4.76 2.86-.1 5.56z"/></g><defs><clipPath id="a"><path fill="#fff" d="M4 4h22v22H4z"/></clipPath></defs></svg>