<svg xmlns="http://www.w3.org/2000/svg" width="30" height="30" fill="none" viewBox="0 0 30 30"><path fill="#fff" d="M15.033 26.5C11.698 26.5 6 25.854 6 23.435c0-.819.642-1.491 1.906-2.007a.75.75 0 0 1 .979.427.78.78 0 0 1-.42.996c-.839.344-.963.61-.963.615.207.48 2.984 1.501 7.531 1.501 4.548 0 7.293-1.011 7.531-1.564a3 3 0 0 0-.958-.557.764.764 0 0 1-.39-.979.764.764 0 0 1 .95-.445c1.263.522 1.905 1.19 1.905 2.008 0 2.418-5.697 3.065-9.038 3.065"/><path fill="#fff" d="M10.859 23.393h-.083a.75.75 0 0 1-.644-.547.8.8 0 0 1-.025-.297l1.813-16.99a2.28 2.28 0 0 1 .728-1.464c.414-.38.954-.592 1.515-.595h1.735c.566 0 1.11.216 1.526.602s.671.916.717 1.483l1.71 16.984a.76.76 0 0 1-.391.745.75.75 0 0 1-1.02-.306.8.8 0 0 1-.087-.282L16.644 5.72a.76.76 0 0 0-.746-.688h-1.735a.754.754 0 0 0-.746.683L11.604 22.71a.763.763 0 0 1-.745.683"/></svg>