<svg xmlns="http://www.w3.org/2000/svg" width="30" height="30" fill="none" viewBox="0 0 30 30"><g clip-path="url(#a)"><path stroke="#fff" stroke-width="1.993" d="M15 28.954c7.707 0 13.954-6.248 13.954-13.954S22.707 1.047 15 1.047C7.294 1.047 1.047 7.294 1.047 15S7.294 28.953 15 28.953Z"/><path fill="#fff" d="M14.391 8.35v1.817H9.998v3.2h4.242v1.818H9.998v5.795H8.066V8.35zM20.9 18.29l1.553.871q-.53.947-1.344 1.458-.929.606-2.349.606-1.666 0-2.689-1.022-1.173-1.175-1.174-3.05 0-1.968 1.27-3.275 1.079-1.08 2.67-1.08 1.552 0 2.556 1.042 1.117 1.156 1.117 3.37v.228H16.79q.075 1.004.682 1.61.51.51 1.42.51.738 0 1.269-.397.435-.34.738-.87m-3.976-2.367h3.692a1.84 1.84 0 0 0-.568-1.08q-.492-.453-1.25-.454-.795 0-1.306.511-.418.38-.568 1.023"/></g><defs><clipPath id="a"><path fill="#fff" d="M0 0h30v30H0z"/></clipPath></defs></svg>