<svg width="30" height="30" fill="none" viewBox="0 0 30 30"><g fill="#fff" clip-path="url(#a)"><path d="M6 16.1a9.2 9.2 0 0 0 2.6 6.49 9 9 0 0 0 6.4 2.73c5.05 0 9-3.87 9-8.8 0-5.22-4.12-9.63-9-9.63a9 9 0 0 0-4.65 1.33l.47-2.48a.6.6 0 0 0-.44-.74.57.57 0 0 0-.66.49l-.75 3.78a9 9 0 0 0-2.2 3.1A9 9 0 0 0 6 16.11m16.84 0a8 8 0 0 1-2.27 5.62A8 8 0 0 1 15 24.1a8 8 0 0 1-4.43-1.44 8 8 0 0 1-2.87-3.7 8 8 0 0 1-.32-4.66 8 8 0 0 1 2.34-4.05l3.54.46a.6.6 0 0 0 .57-.3l.07-.22a.6.6 0 0 0-.5-.68l-2.29-.3a7.7 7.7 0 0 1 3.9-1.07c2.1.02 4.1.87 5.56 2.36a8 8 0 0 1 2.27 5.62"/><path d="M10.15 15.18h-.94v-.44h2.41v.44h-.94v2.4h-.53zm3.87.23v2.17h-.48v-.27a1 1 0 0 1-.3.22 1 1 0 0 1-.4.08q-.44 0-.69-.24t-.25-.72v-1.24h.51v1.17q0 .3.13.44.14.14.38.14a.6.6 0 0 0 .43-.16q.16-.17.16-.5v-1.09zm1.15.32q.22-.34.77-.34v.48l-.11-.01q-.3 0-.47.17t-.16.5v1.05h-.51v-2.17h.48zm2.4-.34q.32 0 .57.13.25.14.4.4.14.25.14.58t-.14.58a1 1 0 0 1-.4.4 1 1 0 0 1-.56.13q-.23 0-.41-.08a1 1 0 0 1-.31-.23v.28h-.49v-3.01h.51v1.1a1 1 0 0 1 .3-.21q.18-.07.4-.07m-.06 1.78q.28 0 .46-.18a.7.7 0 0 0 .18-.5.7.7 0 0 0-.18-.49.6.6 0 0 0-.46-.18 1 1 0 0 0-.33.08 1 1 0 0 0-.23.24 1 1 0 0 0-.09.36q0 .2.09.35a1 1 0 0 0 .23.24 1 1 0 0 0 .33.08m2.62.44a1 1 0 0 1-.6-.14 1 1 0 0 1-.41-.4 1 1 0 0 1-.15-.58q0-.32.15-.57t.41-.4a1 1 0 0 1 .6-.14q.33 0 .6.15t.4.4q.15.24.15.56t-.15.58-.4.4a1 1 0 0 1-.6.14m0-.44a.6.6 0 0 0 .46-.18.7.7 0 0 0 .18-.5.7.7 0 0 0-.18-.49.6.6 0 0 0-.46-.18.6.6 0 0 0-.47.18.7.7 0 0 0-.18.5q0 .3.18.49a.6.6 0 0 0 .47.18"/></g><defs><clipPath id="a"><path fill="#fff" d="M6 5h18v20.32H6z"/></clipPath></defs></svg>