<svg width="30" height="30" fill="none" viewBox="0 0 30 30"><g clip-path="url(#a)"><path stroke="#fff" stroke-miterlimit="10" stroke-width=".95" d="m23.03 5.4.05 2.42a3.5 3.5 0 0 1-.97 2.51l-3.13 3.26a1 1 0 0 0-.17 1.21l1.1 2.12a.7.7 0 0 1-.13.82l-1.9 1.8a.7.7 0 0 1-.73.13l-2.31-.97a1 1 0 0 0-1.11.21l-4.26 4.31-1.06 1.95a.68.68 0 0 1-1.27-.21l-.37-2.19a3.5 3.5 0 0 1 .97-3.08l3.43-3.42a1 1 0 0 0 .22-1.03l-.93-2.47a.7.7 0 0 1 .16-.73l1.66-1.67a.7.7 0 0 1 .76-.14l2.08.93a1 1 0 0 0 1.17-.22l4.32-4.36 1.17-1.56a.68.68 0 0 1 1.25.38Z"/><path fill="#fff" d="M16.18 14.88a1.3 1.3 0 0 1-.8 1.2 1.28 1.28 0 0 1-1.74-.95 1.3 1.3 0 0 1 .55-1.32 1.28 1.28 0 0 1 2 1.07"/></g><defs><clipPath id="a"><path fill="#fff" d="M6 4h17.8v22.25H6z"/></clipPath></defs></svg>