<svg width="30" height="30" fill="none" viewBox="0 0 30 30"><path stroke="#fff" stroke-linecap="round" stroke-width="1.9" d="M4.36 12.72v5c0 2.48 1.6 4.5 3.59 4.5h14.1c1.99 0 3.59-2.02 3.59-4.5v-5"/><path fill="#fff" d="M16.24 9q-.03.35-.23.64a1.2 1.2 0 0 1-1.8.11 1.2 1.2 0 0 1-.24-1.26q.14-.33.44-.52a1.2 1.2 0 0 1 .65-.19q.5.01.84.37c.34.36.34.54.34.86m-4.86 2.07q-.02.34-.23.63a1.2 1.2 0 0 1-1.22.44 1.2 1.2 0 0 1-.59-.33 1.2 1.2 0 0 1-.23-1.26q.15-.33.44-.52a1.2 1.2 0 0 1 .65-.19 1.2 1.2 0 0 1 .85.37 1.2 1.2 0 0 1 .33.86m-2 5.16a1 1 0 0 1-.23.63 1.2 1.2 0 0 1-1.8.11 1.2 1.2 0 0 1-.23-1.27q.14-.31.44-.5c.3-.2.42-.2.65-.2a1.2 1.2 0 0 1 .84.38 1.2 1.2 0 0 1 .33.85m13.8-.06q-.03.35-.24.63a1.2 1.2 0 0 1-1.8.12 1.2 1.2 0 0 1-.23-1.27q.14-.31.43-.51a1.2 1.2 0 0 1 .65-.2 1.2 1.2 0 0 1 .85.37 1.2 1.2 0 0 1 .33.86m-1.97-5.1a1 1 0 0 1-.23.63 1.2 1.2 0 0 1-1.21.44 1.2 1.2 0 0 1-.6-.33 1.16 1.16 0 0 1 .21-1.78 1.2 1.2 0 0 1 .65-.19 1.2 1.2 0 0 1 .85.37 1.2 1.2 0 0 1 .33.86m-5 2.45a1 1 0 0 1-.22.63 1.2 1.2 0 0 1-1.81.12 1.2 1.2 0 0 1-.23-1.27q.14-.31.43-.51a1.2 1.2 0 0 1 .65-.2c.32.01.63.15.85.38q.34.36.33.85m-2.47 2.71a1 1 0 0 1-.23.63 1.2 1.2 0 0 1-1.8.11 1.2 1.2 0 0 1-.23-1.26q.14-.31.43-.51a1.2 1.2 0 0 1 .65-.2 1.2 1.2 0 0 1 .85.37 1.2 1.2 0 0 1 .33.86m5.28-.06a1 1 0 0 1-.23.63 1.2 1.2 0 0 1-1.8.11 1.2 1.2 0 0 1-.23-1.26 1.2 1.2 0 0 1 1.09-.7 1.2 1.2 0 0 1 .84.37 1.2 1.2 0 0 1 .33.85"/></svg>