<svg width="30" height="30" fill="none" viewBox="0 0 30 30"><g clip-path="url(#a)"><path fill="#fff" d="M11.04 23.5c-4.33-2.4-5.83-8.02-3.34-12.54a9.6 9.6 0 0 1 3.31-3.48L10 10.03a.7.7 0 0 0 1.14.76l.14-.23 1.57-3.94a8.8 8.8 0 0 1 7.24.58c4.33 2.38 5.83 8 3.36 12.49-2.46 4.5-8.07 6.2-12.4 3.8m9.7-17.52a10.2 10.2 0 0 0-8.43-.63l-4.13-1.3a.7.7 0 0 0-.87.44.7.7 0 0 0 .48.86l2.72.87a11 11 0 0 0-3.98 4.1 10.9 10.9 0 0 0 4.24 14.61c4.85 2.7 10.93.69 13.83-4.56 2.9-5.17 1.16-11.62-3.85-14.39"/><path fill="#fff" d="M15.4 17.13a1.7 1.7 0 0 1-1.26.53 1.2 1.2 0 0 1-.84-.25c-.74-1.07-.16-1.74.62-2.4l.17-.15c.46-.43 3.48-2.9 5.22-4.18-1.1 2.04-3.32 5.8-3.9 6.45M20.39 9c-.78 0-6.86 5.14-6.9 5.21l-.17.15c-.62.54-2.05 1.8-.73 3.64l.03.05a2 2 0 0 0 1.52.58 2.6 2.6 0 0 0 1.94-.83 43 43 0 0 0 2.73-4.36c2.24-3.86 2.14-3.99 1.92-4.26a.5.5 0 0 0-.35-.18M7 21a4 4 0 1 0 0-8 4 4 0 0 0 0 8"/><path stroke="#414047" stroke-width="2.12" d="M7 21a4 4 0 1 0 0-8 4 4 0 0 0 0 8Z"/><path fill="#414047" d="M6.85 19.05q-.5 0-.87-.21a1.4 1.4 0 0 1-.55-.63q-.2-.4-.2-1.01 0-.64.23-1.08t.65-.68.95-.23q.29 0 .54.06t.45.18l-.26.53a1 1 0 0 0-.34-.14l-.37-.05q-.53 0-.84.33t-.3.96v.24q0 .13.04.27l-.22-.23q.1-.22.26-.37.17-.14.4-.22t.51-.07q.37 0 .66.14.28.14.45.4.18.26.18.6 0 .37-.19.64-.18.27-.49.42t-.69.15m-.04-.54a1 1 0 0 0 .38-.07.6.6 0 0 0 .36-.56.6.6 0 0 0-.2-.47q-.21-.17-.55-.17-.22 0-.4.09a1 1 0 0 0-.26.22.6.6 0 0 0-.1.33q0 .17.1.32.08.14.25.23a1 1 0 0 0 .42.08"/></g><defs><clipPath id="a"><path fill="#fff" d="M2 4h24v22.11H2z"/></clipPath></defs></svg>