<svg width="30" height="30" viewBox="0 0 30 30" fill="none" xmlns="http://www.w3.org/2000/svg">
<g clip-path="url(#clip0_67_4577)">
<path fill-rule="evenodd" clip-rule="evenodd" d="M15.1517 6.28793C10.2564 6.28793 6.28806 10.2563 6.28806 15.1516H4.31836C4.31836 9.16852 9.16864 4.31824 15.1517 4.31824C21.1347 4.31824 25.985 9.16852 25.985 15.1516H24.0153C24.0153 10.2563 20.047 6.28793 15.1517 6.28793Z" fill="white"/>
<path d="M15.1512 28.9394C22.766 28.9394 28.939 22.7664 28.939 15.1515C28.939 7.53669 22.766 1.36365 15.1512 1.36365C7.53632 1.36365 1.36328 7.53669 1.36328 15.1515C1.36328 22.7664 7.53632 28.9394 15.1512 28.9394Z" stroke="white" stroke-width="1.70455"/>
<path d="M11.2119 16.7883L17.1167 10.2273L16.5758 14.0796L16.4755 14.7941L17.1827 14.9809L19.0907 15.4846L13.186 22.0455L13.7268 18.1931L13.8271 17.4786L13.12 17.292L11.2119 16.7883Z" stroke="white" stroke-width="1.70455"/>
</g>
<defs>
<clipPath id="clip0_67_4577">
<rect width="30" height="30" fill="white"/>
</clipPath>
</defs>
</svg>
