<svg width="30" height="30" fill="none" viewBox="0 0 30 30"><g clip-path="url(#a)"><path fill="#fff" fill-rule="evenodd" d="M15.11 27.92a12.8 12.8 0 1 0 0-25.6 12.8 12.8 0 0 0 0 25.6m0 1.97a14.77 14.77 0 1 0 0-29.55 14.77 14.77 0 0 0 0 29.55" clip-rule="evenodd"/><path stroke="#fff" stroke-width="1.71" d="M21.8 8.76a.2.2 0 0 1 .29.24l-6.07 10.23a2.31 2.31 0 1 1-3.44-2.98z"/><path fill="#fff" d="M15.8 5.27a.99.99 0 1 0-1.98 0v1.97a.99.99 0 1 0 1.97 0zm8.85 11.81a.99.99 0 1 0 0-1.97h-1.97a.99.99 0 0 0 0 1.97zm-19.7 0a.99.99 0 1 1 0-1.97h1.98a.99.99 0 0 1 0 1.97zM6.4 9.32a.99.99 0 0 1 1.4-1.39l1.39 1.4a.99.99 0 1 1-1.4 1.39z"/></g><defs><clipPath id="a"><path fill="#fff" d="M0 0h30v30H0z"/></clipPath></defs></svg>