<svg width="30" height="30" viewBox="0 0 30 30" fill="none" xmlns="http://www.w3.org/2000/svg">
<path d="M18.9414 9.51399C18.0036 9.79706 17.4787 9.6252 17.1066 8.69005C16.7212 7.59586 15.9845 6.65725 15.0097 6.01812C14.0348 5.37899 12.8755 5.07461 11.7095 5.15164C8.7586 5.30329 7.12263 6.52656 6.18998 9.70102C5.80055 11.0008 5.87365 12.3938 6.39702 13.6465C6.92039 14.8991 7.86218 15.9351 9.06439 16.5807C10.3232 17.2783 10.3232 17.2783 10.0837 18.6785C6.85762 18.1982 4.03926 14.771 4.46227 10.2924C4.59618 8.65164 5.2786 7.10216 6.40128 5.88975C7.52396 4.67734 9.02263 3.87142 10.6596 3.5998C11.5956 3.44262 12.5538 3.47134 13.4785 3.68431C14.4032 3.89727 15.2761 4.29024 16.0465 4.8404C16.8169 5.39057 17.4695 6.087 17.9665 6.88927C18.4634 7.69154 18.7948 8.5837 18.9414 9.51399Z" fill="white"/>
<path d="M11.8112 6.5468C11.9449 6.54142 12.0783 6.56418 12.2025 6.61356C12.3266 6.66295 12.4389 6.73786 12.5318 6.83335C12.6247 6.92885 12.6962 7.04277 12.7415 7.16763C12.7869 7.29249 12.805 7.42545 12.7949 7.55778C12.8307 7.70636 12.8322 7.86108 12.7991 8.01031C12.766 8.15953 12.6993 8.29938 12.6039 8.41934C12.5085 8.5393 12.3869 8.63626 12.2483 8.70292C12.1097 8.76958 11.9576 8.80421 11.8036 8.80421C11.6496 8.80421 11.4975 8.76958 11.3589 8.70292C11.2203 8.63626 11.0987 8.5393 11.0033 8.41934C10.9079 8.29938 10.8412 8.15953 10.8081 8.01031C10.775 7.86108 10.7765 7.70636 10.8123 7.55778C10.8019 7.42412 10.8205 7.2898 10.8667 7.16383C10.913 7.03786 10.9858 6.92316 11.0804 6.82742C11.175 6.73167 11.2892 6.6571 11.4152 6.6087C11.5413 6.5603 11.6763 6.5392 11.8112 6.5468Z" fill="white"/>
<path d="M9.27834 7.55776C9.41182 7.55318 9.54478 7.57649 9.6686 7.62615C9.79241 7.67582 9.90432 7.75074 9.99707 7.84607C10.0898 7.94139 10.1613 8.05498 10.207 8.17948C10.2526 8.30397 10.2713 8.43659 10.262 8.56873C10.2978 8.71732 10.2993 8.87204 10.2662 9.02127C10.2331 9.17049 10.1664 9.31034 10.071 9.4303C9.97559 9.55026 9.85401 9.64722 9.7154 9.71387C9.57679 9.78053 9.42475 9.81517 9.2707 9.81517C9.11665 9.81517 8.96461 9.78053 8.826 9.71387C8.68738 9.64722 8.56581 9.55026 8.47041 9.4303C8.375 9.31034 8.30825 9.17049 8.27518 9.02127C8.2421 8.87204 8.24356 8.71732 8.27943 8.56873C8.2687 8.43326 8.2877 8.29709 8.33513 8.1696C8.38256 8.04212 8.45729 7.92634 8.55417 7.83025C8.65105 7.73416 8.76778 7.66004 8.89631 7.613C9.02485 7.56596 9.16214 7.54711 9.29873 7.55776" fill="white"/>
<path d="M15.3279 8.56865C15.3427 8.69977 15.3303 8.8325 15.2916 8.95872C15.2529 9.08495 15.1887 9.20202 15.1028 9.30279C15.0169 9.40356 14.9113 9.48591 14.7922 9.5448C14.6732 9.6037 14.5433 9.63791 14.4105 9.64534C14.2787 9.65932 14.1454 9.64616 14.0189 9.60667C13.8924 9.56718 13.7755 9.50223 13.6756 9.41587C13.5756 9.32951 13.4946 9.2236 13.4378 9.10478C13.381 8.98597 13.3495 8.85679 13.3454 8.72535C13.3162 8.58176 13.3201 8.4335 13.3566 8.29158C13.3932 8.14966 13.4615 8.01772 13.5564 7.90555C13.6514 7.79339 13.7706 7.70387 13.9053 7.64365C14.0399 7.58343 14.1864 7.55405 14.3341 7.55768C14.4682 7.55245 14.6019 7.57522 14.7266 7.62451C14.8513 7.67381 14.9641 7.74853 15.0578 7.84385C15.1515 7.93916 15.2239 8.05293 15.2705 8.17779C15.317 8.30265 15.3366 8.43581 15.3279 8.56865Z" fill="white"/>
<path d="M8.04498 12.284C7.91385 12.2916 7.78254 12.2725 7.65913 12.2279C7.53571 12.1833 7.4228 12.1141 7.32733 12.0246C7.23186 11.9351 7.15585 11.8272 7.10398 11.7075C7.0521 11.5878 7.02546 11.4589 7.02568 11.3286C7.00362 11.1857 7.01384 11.0398 7.0556 10.9013C7.09737 10.7628 7.16963 10.6353 7.26717 10.5279C7.36471 10.4205 7.48509 10.336 7.61961 10.2804C7.75413 10.2248 7.89942 10.1995 8.04498 10.2064C8.17957 10.2043 8.31309 10.2305 8.43674 10.2833C8.56039 10.336 8.67137 10.4142 8.76237 10.5125C8.85337 10.6109 8.92233 10.7273 8.9647 10.854C9.00708 10.9807 9.02191 11.1149 9.00821 11.2477C9.02024 11.3791 9.00455 11.5116 8.96214 11.6366C8.91973 11.7617 8.85152 11.8766 8.76187 11.9741C8.67222 12.0716 8.56308 12.1495 8.44141 12.2028C8.31974 12.2562 8.1882 12.2838 8.05517 12.284" fill="white"/>
<path d="M12.7949 11.1771C12.8127 11.3079 12.8036 11.441 12.7682 11.5683C12.7329 11.6956 12.672 11.8145 12.5892 11.9178C12.5064 12.0212 12.4034 12.1069 12.2863 12.1699C12.1693 12.2328 12.0407 12.2717 11.9082 12.2841C11.7768 12.3017 11.6432 12.2923 11.5157 12.2563C11.3882 12.2204 11.2695 12.1587 11.1672 12.0752C11.0648 11.9917 10.9809 11.8882 10.9207 11.771C10.8606 11.6539 10.8254 11.5257 10.8175 11.3944C10.7865 11.252 10.7878 11.1046 10.8214 10.9627C10.855 10.8209 10.9201 10.6883 11.0118 10.5746C11.1036 10.4608 11.2197 10.3687 11.3519 10.3051C11.484 10.2414 11.6288 10.2078 11.7756 10.2065C11.9083 10.1981 12.0412 10.2171 12.166 10.2623C12.2908 10.3076 12.4047 10.3781 12.5006 10.4694C12.5965 10.5606 12.6721 10.6707 12.7228 10.7925C12.7735 10.9144 12.798 11.0453 12.7949 11.1771Z" fill="white"/>
<path d="M9.24782 14.9328C9.11561 14.9352 8.98433 14.9103 8.86235 14.8597C8.74036 14.809 8.63033 14.7338 8.53925 14.6387C8.44818 14.5436 8.37805 14.4308 8.33333 14.3073C8.28861 14.1839 8.27027 14.0526 8.27948 13.9218C8.24814 13.7723 8.25132 13.6178 8.28879 13.4697C8.32626 13.3217 8.39704 13.184 8.49583 13.0669C8.59462 12.9499 8.71885 12.8565 8.8592 12.7939C8.99956 12.7313 9.15238 12.701 9.30623 12.7053C9.46007 12.7096 9.61093 12.7484 9.74748 12.8188C9.88404 12.8892 10.0028 12.9894 10.0947 13.1118C10.1867 13.2342 10.2495 13.3756 10.2785 13.5255C10.3075 13.6755 10.3018 13.8299 10.262 13.9774C10.2659 14.1094 10.2419 14.2407 10.1915 14.3629C10.1411 14.4851 10.0654 14.5954 9.96939 14.6869C9.87336 14.7783 9.75909 14.8488 9.63393 14.8937C9.50877 14.9387 9.37551 14.9572 9.24272 14.9479" fill="white"/>
<path d="M19.4356 14.2352C19.4286 14.3704 19.3818 14.5007 19.301 14.6098C19.2202 14.7189 19.1088 14.8022 18.9808 14.8492C18.8528 14.8962 18.7136 14.905 18.5806 14.8744C18.4476 14.8438 18.3266 14.7752 18.2325 14.6771C18.1384 14.579 18.0753 14.4557 18.0511 14.3224C18.027 14.1891 18.0427 14.0517 18.0964 13.9272C18.1502 13.8027 18.2395 13.6966 18.3535 13.622C18.4674 13.5473 18.6009 13.5074 18.7374 13.5073C18.9271 13.5126 19.107 13.5921 19.2378 13.7284C19.3686 13.8648 19.4397 14.047 19.4356 14.2352Z" fill="white"/>
<path d="M16.5612 15.4636C16.5543 15.5988 16.5075 15.729 16.4266 15.8382C16.3458 15.9473 16.2345 16.0306 16.1064 16.0776C15.9784 16.1246 15.8392 16.1334 15.7062 16.1028C15.5732 16.0722 15.4522 16.0036 15.3581 15.9055C15.264 15.8074 15.2009 15.6841 15.1767 15.5508C15.1526 15.4175 15.1683 15.2801 15.2221 15.1556C15.2758 15.0311 15.3651 14.925 15.4791 14.8504C15.593 14.7757 15.7265 14.7358 15.863 14.7357C15.9572 14.7376 16.05 14.758 16.1361 14.7958C16.2223 14.8335 16.3 14.8877 16.365 14.9554C16.4299 15.0231 16.4806 15.1028 16.5143 15.19C16.548 15.2772 16.5639 15.3702 16.5612 15.4636Z" fill="white"/>
<path d="M15.3789 18.5268C15.3719 18.6623 15.3249 18.7927 15.2439 18.9019C15.1628 19.0112 15.0512 19.0944 14.9228 19.1413C14.7945 19.1881 14.6551 19.1966 14.522 19.1656C14.3889 19.1346 14.2678 19.0655 14.1739 18.9669C14.08 18.8683 14.0174 18.7445 13.9938 18.6109C13.9702 18.4773 13.9867 18.3398 14.0412 18.2154C14.0957 18.091 14.1858 17.9852 14.3004 17.9112C14.415 17.8371 14.549 17.7981 14.6857 17.7989C14.7794 17.8015 14.8717 17.8224 14.9573 17.8604C15.0428 17.8984 15.12 17.9528 15.1844 18.0204C15.2488 18.088 15.2991 18.1675 15.3324 18.2544C15.3658 18.3413 15.3816 18.4339 15.3789 18.5268Z" fill="white"/>
<path d="M16.5256 21.4232C16.5196 21.5587 16.4736 21.6895 16.3933 21.7993C16.3131 21.9091 16.202 21.9931 16.0741 22.0409C15.9461 22.0887 15.8067 22.0982 15.6734 22.0681C15.54 22.0381 15.4185 21.9699 15.3239 21.8719C15.2292 21.774 15.1657 21.6506 15.1412 21.5172C15.1166 21.3837 15.1321 21.2461 15.1857 21.1213C15.2394 20.9965 15.3288 20.8901 15.4428 20.8152C15.5569 20.7404 15.6906 20.7004 15.8274 20.7003C15.9215 20.7023 16.0143 20.7227 16.1005 20.7604C16.1866 20.7981 16.2644 20.8524 16.3293 20.9201C16.3942 20.9877 16.445 21.0675 16.4787 21.1547C16.5124 21.2419 16.5283 21.3349 16.5256 21.4282" fill="white"/>
<path d="M19.4561 22.8385C19.4491 22.9737 19.4023 23.104 19.3215 23.2131C19.2406 23.3223 19.1293 23.4055 19.0013 23.4525C18.8732 23.4996 18.7341 23.5083 18.6011 23.4777C18.4681 23.4472 18.347 23.3786 18.2529 23.2804C18.1588 23.1823 18.0958 23.059 18.0716 22.9257C18.0474 22.7924 18.0632 22.6551 18.1169 22.5306C18.1706 22.4061 18.26 22.2999 18.3739 22.2253C18.4878 22.1506 18.6213 22.1108 18.7579 22.1106C18.9476 22.1159 19.1274 22.1954 19.2583 22.3318C19.3891 22.4681 19.4602 22.6503 19.4561 22.8385Z" fill="white"/>
<path d="M22.3713 21.5548C22.3643 21.69 22.3175 21.8203 22.2367 21.9294C22.1558 22.0386 22.0445 22.1218 21.9165 22.1688C21.7884 22.2159 21.6493 22.2246 21.5163 22.194C21.3833 22.1635 21.2622 22.0949 21.1681 21.9968C21.074 21.8986 21.011 21.7753 20.9868 21.642C20.9626 21.5088 20.9784 21.3714 21.0321 21.2469C21.0859 21.1224 21.1752 21.0162 21.2891 20.9416C21.4031 20.867 21.5365 20.8271 21.6731 20.8269C21.7672 20.8289 21.86 20.8493 21.9462 20.887C22.0323 20.9247 22.1101 20.979 22.175 21.0466C22.2399 21.1143 22.2907 21.194 22.3244 21.2813C22.3581 21.3685 22.374 21.4614 22.3713 21.5548Z" fill="white"/>
<path d="M23.5384 18.4916C23.5314 18.6268 23.4846 18.7571 23.4038 18.8662C23.323 18.9753 23.2116 19.0586 23.0836 19.1056C22.9556 19.1526 22.8164 19.1614 22.6834 19.1308C22.5504 19.1002 22.4294 19.0316 22.3352 18.9335C22.2411 18.8354 22.1781 18.7121 22.1539 18.5788C22.1297 18.4455 22.1455 18.3081 22.1992 18.1836C22.253 18.0591 22.3423 17.953 22.4562 17.8784C22.5702 17.8037 22.7037 17.7638 22.8402 17.7637C22.9343 17.7656 23.0272 17.7861 23.1133 17.8238C23.1995 17.8615 23.2772 17.9157 23.3421 17.9834C23.407 18.0511 23.4578 18.1308 23.4915 18.218C23.5252 18.3052 23.5411 18.3982 23.5384 18.4916Z" fill="white"/>
<path d="M22.3713 15.4636C22.3643 15.5988 22.3175 15.729 22.2367 15.8382C22.1558 15.9473 22.0445 16.0306 21.9165 16.0776C21.7884 16.1246 21.6493 16.1334 21.5163 16.1028C21.3833 16.0722 21.2622 16.0036 21.1681 15.9055C21.074 15.8074 21.011 15.6841 20.9868 15.5508C20.9626 15.4175 20.9784 15.2801 21.0321 15.1556C21.0859 15.0311 21.1752 14.925 21.2891 14.8504C21.4031 14.7757 21.5365 14.7358 21.6731 14.7357C21.7672 14.7376 21.86 14.758 21.9462 14.7958C22.0323 14.8335 22.1101 14.8877 22.175 14.9554C22.2399 15.0231 22.2907 15.1028 22.3244 15.19C22.3581 15.2772 22.374 15.3702 22.3713 15.4636Z" fill="white"/>
<path d="M19.4152 16.9195C19.4083 17.0547 19.3615 17.185 19.2806 17.2941C19.1998 17.4033 19.0885 17.4865 18.9604 17.5335C18.8324 17.5805 18.6933 17.5893 18.5602 17.5587C18.4272 17.5281 18.3062 17.4596 18.2121 17.3614C18.118 17.2633 18.0549 17.14 18.0307 17.0067C18.0066 16.8734 18.0223 16.7361 18.0761 16.6116C18.1298 16.4871 18.2192 16.3809 18.3331 16.3063C18.447 16.2316 18.5805 16.1918 18.717 16.1916C18.9067 16.1969 19.0866 16.2764 19.2174 16.4128C19.3482 16.5491 19.4194 16.7313 19.4152 16.9195Z" fill="white"/>
<path d="M17.9526 18.5268C17.9456 18.662 17.8988 18.7923 17.818 18.9014C17.7371 19.0106 17.6258 19.0938 17.4978 19.1408C17.3697 19.1878 17.2306 19.1966 17.0976 19.166C16.9646 19.1354 16.8435 19.0669 16.7494 18.9687C16.6553 18.8706 16.5923 18.7473 16.5681 18.614C16.5439 18.4807 16.5597 18.3434 16.6134 18.2189C16.6671 18.0944 16.7565 17.9882 16.8704 17.9136C16.9844 17.8389 17.1178 17.7991 17.2544 17.7989C17.3485 17.8009 17.4413 17.8213 17.5275 17.859C17.6136 17.8967 17.6914 17.951 17.7563 18.0186C17.8212 18.0863 17.872 18.166 17.9057 18.2532C17.9394 18.3405 17.9553 18.4334 17.9526 18.5268Z" fill="white"/>
<path d="M19.4611 20.195C19.4541 20.3302 19.4073 20.4605 19.3265 20.5696C19.2456 20.6788 19.1343 20.762 19.0063 20.809C18.8782 20.8561 18.7391 20.8648 18.6061 20.8342C18.4731 20.8037 18.352 20.7351 18.2579 20.637C18.1638 20.5388 18.1008 20.4155 18.0766 20.2822C18.0524 20.149 18.0682 20.0116 18.1219 19.8871C18.1756 19.7626 18.265 19.6564 18.3789 19.5818C18.4928 19.5072 18.6263 19.4673 18.7629 19.4671C18.9526 19.4724 19.1325 19.5519 19.2633 19.6883C19.3941 19.8247 19.4652 20.0068 19.4611 20.195Z" fill="white"/>
<path d="M21.0767 18.4916C21.0697 18.627 21.0228 18.7575 20.9417 18.8667C20.8607 18.976 20.749 19.0592 20.6207 19.106C20.4924 19.1529 20.353 19.1614 20.2199 19.1304C20.0867 19.0994 19.9657 19.0303 19.8718 18.9317C19.7779 18.8331 19.7153 18.7093 19.6917 18.5757C19.6681 18.4421 19.6846 18.3046 19.7391 18.1802C19.7936 18.0558 19.8837 17.95 19.9983 17.8759C20.1129 17.8019 20.2469 17.7629 20.3836 17.7637C20.4773 17.7663 20.5696 17.7872 20.6552 17.8252C20.7407 17.8632 20.8179 17.9176 20.8823 17.9852C20.9466 18.0528 20.9969 18.1323 21.0303 18.2192C21.0637 18.3061 21.0795 18.3986 21.0767 18.4916Z" fill="white"/>
<path d="M18.7681 12.2637C15.4808 12.2637 12.8154 15.054 12.8154 18.4913C12.8154 21.9286 15.4808 24.7139 18.7681 24.7139C22.0553 24.7139 24.7157 21.9236 24.7157 18.4913C24.7157 15.0591 22.0502 12.2637 18.7681 12.2637ZM18.7681 26.0585C14.7775 26.0585 11.5311 22.6616 11.5311 18.4762C11.5311 14.2907 14.7775 10.8939 18.7681 10.8939C22.7586 10.8939 26 14.2907 26 18.4762C26 22.6616 22.7535 26.0585 18.7681 26.0585Z" fill="white"/>
</svg>
