<svg width="30" height="30" fill="none" viewBox="0 0 30 30"><path fill="#fff" d="M9.34 4.63a5.3 5.3 0 0 0-2.95.9 5.3 5.3 0 0 0-1.95 2.39A5.3 5.3 0 0 0 5.6 13.7a5.4 5.4 0 0 0 5.8 1.14 5.3 5.3 0 0 0 2.4-1.95 5.3 5.3 0 0 0 .49-4.98 5.3 5.3 0 0 0-2.9-2.88 5 5 0 0 0-2.05-.4m0 .79a4.6 4.6 0 0 1 2.52.75 4.5 4.5 0 0 1 1.68 2.03 4.5 4.5 0 0 1-.97 4.92 4.5 4.5 0 0 1-4.94 1 4.5 4.5 0 0 1-2.04-1.66 4.5 4.5 0 0 1 .55-5.7 4.5 4.5 0 0 1 3.2-1.33"/><path fill="#fff" d="M11.81 8.22a6 6 0 0 0-1.3 2.01 10 10 0 0 0-.5 2.35l-.06.59H8.5l.05-.59a8 8 0 0 1 .6-2.4 7 7 0 0 1 1.25-1.96H7.26V7.13h4.52zm-.12 16.99a.8.8 0 0 0 .83.75.83.83 0 0 0 .82-.75v-8.9l-1.65 1.6zm3.18 0a.8.8 0 0 0 .82.75.83.83 0 0 0 .82-.75V13.23l-1.64 1.6zm-9.52 0a.8.8 0 0 0 .82.79.8.8 0 0 0 .83-.79v-2.73l-1.65 1.58zm3.17 0a.8.8 0 0 0 .82.75.83.83 0 0 0 .82-.75V19.4L8.52 21zM24.36 5.6v19.6a.8.8 0 0 0 .82.75.83.83 0 0 0 .82-.75V4zm-6.32 19.6a.8.8 0 0 0 .82.75.83.83 0 0 0 .82-.75V10.16l-1.64 1.6zm3.17 0a.8.8 0 0 0 .82.75.83.83 0 0 0 .82-.75V7.07l-1.64 1.6z"/></svg>