<svg xmlns="http://www.w3.org/2000/svg" width="30" height="30" fill="none" viewBox="0 0 30 30"><g clip-path="url(#a)"><mask id="c" width="30" height="30" x="0" y="0" maskUnits="userSpaceOnUse" style="mask-type:alpha"><mask id="b" width="13" height="30" x="15" y="0" maskUnits="userSpaceOnUse" style="mask-type:luminance"><path fill="#fff" fill-rule="evenodd" d="M18.773 2.986C18.773 1.337 20.128 0 21.8 0s3.028 1.336 3.028 2.985v15.722c1.81 1.032 3.027 2.961 3.027 5.17 0 3.297-2.71 5.97-6.055 5.97-3.343 0-6.054-2.673-6.054-5.97 0-2.209 1.217-4.138 3.027-5.17z" clip-rule="evenodd"/></mask><g mask="url(#b)"><path fill="#030303" d="M24.828 18.707h-2.132v1.238l1.075.614zm-6.055 0 1.057 1.852 1.075-.614v-1.238zm3.028-20.839c-2.821 0-5.16 2.263-5.16 5.117h4.264c0-.442.373-.853.895-.853zm5.159 5.117c0-2.854-2.339-5.117-5.16-5.117v4.264c.523 0 .896.41.896.853zm-4.264 0v15.722h4.263V2.985zm7.29 20.893c0-3.016-1.664-5.632-4.102-7.023L23.77 20.56c1.181.673 1.952 1.916 1.952 3.319zM21.8 31.979c4.493 0 8.187-3.599 8.187-8.101h-4.264c0 2.09-1.728 3.837-3.922 3.837zm-8.186-8.101c0 4.502 3.694 8.101 8.186 8.101v-4.264c-2.194 0-3.922-1.746-3.922-3.837zm4.103-7.023c-2.438 1.39-4.103 4.007-4.103 7.023h4.264c0-1.403.77-2.646 1.952-3.32zm3.188 1.852V2.986l-4.264-.001v15.722z"/></g><path fill="#030303" d="M23.804 2.15h-4.051v7.99h4.051z"/><path fill="#030303" fill-rule="evenodd" d="M13.079 23.76c-2.065 2.954-8.724.212-11.248-4.098 4.768-2.714 12.252-1.49 11.812 2.54-.843-.995-2.3-2.037-4.236-1.719-2.604.428-2.894.535-2.713.535 1.863 0 5.564.563 6.385 2.742M13.48 18.494c-2.575-.037-3.557-4.98-1.976-8.14 3.495 1.7 5.708 6.525 3.128 7.855.263-.88.312-2.136-.64-3.135-1.279-1.343-1.457-1.469-1.385-1.364.732 1.081 1.852 3.45.874 4.784" clip-rule="evenodd"/></mask><g mask="url(#c)"><path fill="#fff" d="M0 0h30v30H0z"/></g></g><defs><clipPath id="a"><path fill="#fff" d="M0 0h30v30H0z"/></clipPath></defs></svg>