<svg xmlns="http://www.w3.org/2000/svg" width="30" height="30" fill="none" viewBox="0 0 30 30"><path fill="#fff" d="M12.984 22.779a.54.54 0 0 1-.195.364.52.52 0 0 1-.394.11C7.42 22.548 4 20.145 4 17.302c0-3.453 4.973-6.155 11.326-6.155s11.321 2.702 11.321 6.155c0 2.82-3.21 5.127-8.038 5.9a.55.55 0 0 1-.39-.112.56.56 0 0 1-.211-.35l-.028-.204a.57.57 0 0 1 .11-.384.56.56 0 0 1 .335-.213c4.066-.66 6.965-2.567 6.965-4.637 0-2.646-4.606-4.88-10.064-4.88-5.457 0-10.069 2.256-10.069 4.88 0 2.115 3.099 4.084 7.293 4.687.131.023.25.092.334.196.085.103.13.234.128.368z"/><path fill="#fff" d="M10.709 18.717a.64.64 0 0 0-.242.424.65.65 0 0 0 .125.473l1.536 2.319a.65.65 0 0 1-.156.925l-2.147 1.974a.63.63 0 0 0-.271.404.65.65 0 0 0 .09.479.622.622 0 0 0 .87.183l3.277-2.719a.64.64 0 0 0 .275-.425.65.65 0 0 0-.12-.494l-2.358-3.385a.63.63 0 0 0-.414-.248.62.62 0 0 0-.465.124M9.991 8.406a.6.6 0 0 1 .329.112c.204.168.46.26.723.26a.93.93 0 0 0 .672-.297.96.96 0 0 0 .257-.696.83.83 0 0 0-.229-.632.81.81 0 0 0-.617-.248c-.333 0-.456.13-.734.13a.37.37 0 0 1-.275-.127.4.4 0 0 1-.076-.135q-.024-.076-.016-.156a.53.53 0 0 1 .172-.36l1.18-1.31H9.869a.41.41 0 0 1-.313-.129.42.42 0 0 1-.115-.322.42.42 0 0 1 .264-.392.4.4 0 0 1 .164-.025h2.337a.42.42 0 0 1 .352.126.44.44 0 0 1 .12.359.57.57 0 0 1-.183.372L11.47 6.065c.405.03.781.22 1.048.53.268.308.405.712.382 1.122 0 1.129-.807 1.856-2.03 1.856a2.2 2.2 0 0 1-1.03-.254.46.46 0 0 1-.278-.417.5.5 0 0 1 .126-.337.48.48 0 0 1 .32-.16M15.415 8.722a.87.87 0 0 0 .628-.287.9.9 0 0 0 .235-.656.9.9 0 0 0-.215-.685.87.87 0 0 0-.648-.294.86.86 0 0 0-.647.294.88.88 0 0 0-.215.685.9.9 0 0 0 .235.656.89.89 0 0 0 .627.287m0 .851c-1.112 0-1.791-1.026-1.791-2.115 0-.886.378-2.82 2.303-3.385a.7.7 0 0 1 .178 0 .4.4 0 0 1 .329.105.4.4 0 0 1 .127.324.52.52 0 0 1-.406.485 2.3 2.3 0 0 0-.89.494c-.256.23-.46.513-.595.832.24-.215.548-.333.868-.333.45.033.872.236 1.18.57.31.333.484.772.489 1.23a1.82 1.82 0 0 1-.523 1.272 1.77 1.77 0 0 1-1.258.521M19.833 8.643c.634 0 1.045-.61 1.045-1.856 0-1.247-.411-1.856-1.046-1.856-.634 0-1.045.609-1.045 1.856 0 1.246.411 1.856 1.046 1.856m0 .93c-1.313 0-2.037-1.128-2.037-2.786S18.52 4 19.833 4s2.041 1.128 2.041 2.787c0 1.658-.729 2.786-2.041 2.786M23.804 6.324c.306 0 .479-.35.479-.812s-.167-.812-.479-.812-.49.344-.49.812.173.812.49.812m0 .688a1.35 1.35 0 0 1-.934-.485 1.4 1.4 0 0 1-.317-1.015 1.3 1.3 0 0 1 .269-1.06 1.27 1.27 0 0 1 .977-.466 1.25 1.25 0 0 1 .977.466 1.3 1.3 0 0 1 .269 1.06 1.4 1.4 0 0 1-.313 1.011 1.37 1.37 0 0 1-.928.49"/></svg>