<svg width="30" height="30" fill="none" viewBox="0 0 30 30"><path fill="#fff" d="M18.94 9.51c-.94.29-1.46.11-1.83-.82A5.3 5.3 0 0 0 15 6.02a5.4 5.4 0 0 0-3.3-.87C8.76 5.3 7.12 6.53 6.19 9.7a6 6 0 0 0 .2 3.95 6 6 0 0 0 2.67 2.93c1.26.7 1.26.7 1.02 2.1-3.22-.48-6.04-3.91-5.62-8.39A7.4 7.4 0 0 1 6.4 5.9a7.5 7.5 0 0 1 4.26-2.29 7.2 7.2 0 0 1 5.39 1.24 7 7 0 0 1 1.92 2.05q.75 1.22.97 2.62"/><path fill="#fff" d="M11.81 6.55a1 1 0 0 1 .72.28 1 1 0 0 1 .27.73 1 1 0 0 1-.55 1.14A1 1 0 0 1 11 8.42a1 1 0 0 1-.19-.86 1 1 0 0 1 .27-.73 1 1 0 0 1 .73-.28m-2.53 1a1 1 0 0 1 .72.3 1 1 0 0 1 .26.72 1 1 0 0 1-.54 1.14 1 1 0 0 1-1.25-.28 1 1 0 0 1-.19-.86 1 1 0 0 1 .27-.74 1 1 0 0 1 .75-.27m6.03 1a1 1 0 0 1-.23.74 1 1 0 0 1-.69.35 1 1 0 0 1-.97-.54 1 1 0 0 1-.1-.38 1 1 0 0 1 .22-.83 1 1 0 0 1 .77-.34 1 1 0 0 1 .73.28 1 1 0 0 1 .27.73m-7.28 3.71a1 1 0 0 1-.95-.57 1 1 0 0 1-.07-.38 1 1 0 0 1 .24-.8 1 1 0 0 1 .77-.32 1 1 0 0 1 .72.3 1 1 0 0 1 .25.74 1 1 0 0 1-.25.72 1 1 0 0 1-.7.31m4.73-1.1a1 1 0 0 1-.2.74 1 1 0 0 1-.68.36 1 1 0 0 1-.99-.5 1 1 0 0 1-.1-.39 1 1 0 0 1 .53-1.09 1 1 0 0 1 .43-.1 1 1 0 0 1 .72.27 1 1 0 0 1 .3.7m-3.55 3.76a1 1 0 0 1-.71-.3 1 1 0 0 1-.26-.7 1 1 0 0 1 .22-.86 1 1 0 0 1 .8-.37 1 1 0 0 1 .8.41 1 1 0 0 1 .16.87 1 1 0 0 1-.3.7 1 1 0 0 1-.72.27m10.2-.71a.7.7 0 0 1-.46.6.7.7 0 0 1-.75-.16.69.69 0 1 1 1-.95.7.7 0 0 1 .2.5m-2.87 1.23a.7.7 0 0 1-.45.62.7.7 0 0 1-.75-.17.69.69 0 0 1 .78-1.11.7.7 0 0 1 .42.66m-1.18 3.07a.7.7 0 0 1-.46.61.7.7 0 0 1-.75-.17.69.69 0 0 1 .79-1.11.7.7 0 0 1 .37.4q.05.13.05.27m1.15 2.9a.7.7 0 0 1-.46.61.7.7 0 0 1-.75-.17.7.7 0 0 1 .12-1.06 1 1 0 0 1 .39-.11.7.7 0 0 1 .65.45q.05.14.05.28m2.93 1.4a.7.7 0 0 1-.46.62.7.7 0 0 1-.75-.17.69.69 0 1 1 1-.95.7.7 0 0 1 .2.5m2.92-1.27a.7.7 0 0 1-.45.6.7.7 0 0 1-.75-.16.7.7 0 1 1 1-.95.7.7 0 0 1 .2.5m1.17-3.06a.7.7 0 0 1-.46.62.7.7 0 0 1-.74-.18.69.69 0 0 1 .77-1.1.7.7 0 0 1 .43.66m-1.17-3.03a.7.7 0 0 1-.45.62.7.7 0 0 1-.75-.17.69.69 0 0 1 .78-1.11.7.7 0 0 1 .42.66m-2.96 1.46a.7.7 0 0 1-.45.61.7.7 0 0 1-.75-.17.69.69 0 1 1 1-.95q.2.22.2.5m-1.46 1.62a.7.7 0 0 1-.45.61.7.7 0 0 1-.75-.17.69.69 0 0 1 .78-1.11.7.7 0 0 1 .38.4q.05.12.04.27m1.51 1.66a.7.7 0 0 1-.45.62.7.7 0 0 1-.75-.17.7.7 0 0 1 .5-1.17q.3 0 .5.22a.7.7 0 0 1 .2.5m1.62-1.7a.7.7 0 0 1-.46.62.7.7 0 0 1-.75-.18.69.69 0 0 1 .79-1.1.7.7 0 0 1 .37.39z"/><path fill="#fff" d="M18.77 12.26c-3.29 0-5.95 2.8-5.95 6.23s2.66 6.22 5.95 6.22 5.95-2.79 5.95-6.22-2.67-6.23-5.95-6.23m0 13.8c-4 0-7.24-3.4-7.24-7.58 0-4.19 3.25-7.59 7.24-7.59S26 14.3 26 18.48s-3.25 7.58-7.23 7.58"/></svg>