<svg width="30" height="30" fill="none" viewBox="0 0 30 30"><g clip-path="url(#a)"><path stroke="#fff" stroke-linejoin="round" stroke-width="1.71" d="M7.31 2.15c0-.55.46-1.01 1.06-1.01H21.7c.6 0 1.05.46 1.05 1.01.02 3.37-.12 10.17-1.28 16.1-.57 2.98-1.4 5.64-2.51 7.53q-1.66 2.84-3.93 2.82c-2.27-.02-2.81-.93-3.93-2.82s-1.94-4.55-2.52-7.53C7.43 12.32 7.29 5.52 7.3 2.15Z"/><path stroke="#fff" stroke-width="1.71" d="M7.35 13.77h15.38"/><path fill="#fff" d="M11.74 6.63a1.1 1.1 0 1 0 0-2.2 1.1 1.1 0 0 0 0 2.2m3.3 0a1.1 1.1 0 1 0 0-2.2 1.1 1.1 0 0 0 0 2.2m-3.3 3.3a1.1 1.1 0 1 0 0-2.2 1.1 1.1 0 0 0 0 2.2m6.6-3.3a1.1 1.1 0 1 0 0-2.2 1.1 1.1 0 0 0 0 2.2m-3.3 3.3a1.1 1.1 0 1 0 0-2.2 1.1 1.1 0 0 0 0 2.2m-3.3 8.78a1.1 1.1 0 1 0 0-2.2 1.1 1.1 0 0 0 0 2.2m3.3 0a1.1 1.1 0 1 0 0-2.2 1.1 1.1 0 0 0 0 2.2m3.3 0a1.1 1.1 0 1 0 0-2.2 1.1 1.1 0 0 0 0 2.2m-4.95 3.3a1.1 1.1 0 1 0 0-2.2 1.1 1.1 0 0 0 0 2.2m3.3 0a1.1 1.1 0 1 0 0-2.2 1.1 1.1 0 0 0 0 2.2m-1.65 3.3a1.1 1.1 0 1 0 0-2.2 1.1 1.1 0 0 0 0 2.2m3.3-15.39a1.1 1.1 0 1 0 0-2.2 1.1 1.1 0 0 0 0 2.2"/></g><defs><clipPath id="a"><path fill="#fff" d="M0 0h30v30H0z"/></clipPath></defs></svg>