<svg xmlns="http://www.w3.org/2000/svg" width="30" height="30" fill="none" viewBox="0 0 30 30"><path fill="#fff" d="M9.341 4.627a5.34 5.34 0 0 0-2.952.906A5.3 5.3 0 0 0 4.437 7.92a5.29 5.29 0 0 0 1.166 5.777 5.345 5.345 0 0 0 5.8 1.148 5.32 5.32 0 0 0 2.39-1.951 5.3 5.3 0 0 0 .496-4.985 5.32 5.32 0 0 0-2.899-2.882 5.4 5.4 0 0 0-2.049-.4m0 .79a4.55 4.55 0 0 1 2.522.755 4.52 4.52 0 0 1 1.677 2.024 4.51 4.51 0 0 1-.97 4.929 4.54 4.54 0 0 1-4.94.993 4.53 4.53 0 0 1-2.04-1.659 4.5 4.5 0 0 1 .55-5.703 4.53 4.53 0 0 1 3.201-1.327"/><path fill="#fff" d="M11.814 8.22a6.2 6.2 0 0 0-1.296 2.012 9.8 9.8 0 0 0-.504 2.351l-.063.583H8.498l.057-.583c.078-.823.277-1.63.591-2.395a6.5 6.5 0 0 1 1.258-1.968H7.26V7.135h4.523zM11.694 25.21a.82.82 0 0 0 .821.75.826.826 0 0 0 .821-.75v-8.896l-1.642 1.598zM14.865 25.21a.82.82 0 0 0 .82.75.826.826 0 0 0 .822-.75V13.229l-1.642 1.599zM5.353 25.21a.8.8 0 0 0 .817.79.813.813 0 0 0 .825-.79v-2.733l-1.642 1.586zM8.523 25.21a.82.82 0 0 0 .821.75.826.826 0 0 0 .821-.75v-5.812l-1.642 1.593zM24.358 5.599V25.21a.82.82 0 0 0 .821.75.825.825 0 0 0 .821-.75V4zM18.036 25.21a.82.82 0 0 0 .82.75.826.826 0 0 0 .821-.75V10.163l-1.642 1.592zM21.206 25.21a.82.82 0 0 0 .821.75.826.826 0 0 0 .821-.75V7.066l-1.642 1.599z"/></svg>