<svg width="30" height="30" fill="none" viewBox="0 0 30 30"><g clip-path="url(#a)"><path stroke="#fff" stroke-width="1.99" d="M15 28.95a13.95 13.95 0 1 0 0-27.9 13.95 13.95 0 0 0 0 27.9Z"/><path fill="#fff" d="M14.4 8.35v1.82H10v3.2h4.24v1.82H10v5.79H8.07V8.35zm6.5 9.94 1.55.87q-.53.95-1.34 1.46-.93.6-2.35.6-1.67 0-2.69-1.02-1.17-1.17-1.17-3.05 0-1.96 1.27-3.27 1.08-1.08 2.67-1.08 1.55 0 2.55 1.04 1.12 1.16 1.12 3.37v.23h-5.72q.08 1 .68 1.6.51.52 1.42.52.74 0 1.27-.4.44-.34.74-.87m-3.98-2.37h3.7a2 2 0 0 0-.57-1.08q-.5-.45-1.25-.45-.8 0-1.3.51-.43.38-.58 1.02"/></g><defs><clipPath id="a"><path fill="#fff" d="M0 0h30v30H0z"/></clipPath></defs></svg>