<svg width="30" height="30" viewBox="0 0 30 30" fill="none" xmlns="http://www.w3.org/2000/svg">
<path d="M1.20215 20.8048H3.26812" stroke="white" stroke-width="1.70455" stroke-linecap="round"/>
<path d="M2.3291 16.2974L4.11828 17.3304" stroke="white" stroke-width="1.70455" stroke-linecap="round"/>
<path d="M2.3291 25.2185L4.11828 24.1855" stroke="white" stroke-width="1.70455" stroke-linecap="round"/>
<path d="M28.9116 20.8048H26.8457" stroke="white" stroke-width="1.70455" stroke-linecap="round"/>
<path d="M27.7833 25.3122L25.9941 24.2792" stroke="white" stroke-width="1.70455" stroke-linecap="round"/>
<path d="M27.7833 16.391L25.9941 17.424" stroke="white" stroke-width="1.70455" stroke-linecap="round"/>
<path d="M23.7403 24.1855H6.83691V26.4393H23.7403V24.1855Z" fill="white"/>
<path d="M21.4863 6.1554H24.867C25.4894 6.1554 25.9939 6.65991 25.9939 7.28229V12.3526C25.9939 12.6806 25.8511 12.9921 25.6028 13.2063L22.0163 16.2974" stroke="white" stroke-width="1.70455"/>
<path d="M22.4721 21.9318H8.18858L10.0023 7.42191L10.0564 6.98963L9.80556 6.63342L7.88184 3.90149H9.91712H20.3351L22.4721 21.9318Z" stroke="white" stroke-width="1.70455"/>
</svg>
