<svg xmlns="http://www.w3.org/2000/svg" width="30" height="30" fill="none" viewBox="0 0 30 30"><g fill="#fff" clip-path="url(#a)"><path d="M24.747 23.043c.228-5.63.664-16.148.7-16.473h-.056q.451-.186.452-.424c0-.794-3.674-1.188-10.92-1.188C7.68 4.958 4 5.352 4 6.136c0 .16.157.304.462.43l1.375 16.512c-.102.12-.264.275-.421.43-.564.553-.827.828-.726 1.098.218.703 1.619 1.422 10.391 1.422 9.904 0 10.533-.848 10.843-1.268.127-.165.294-.384-1.177-1.717M14.924 5.851c3.709 0 6.368.14 7.91.285-1.522.15-4.201.29-7.91.29s-6.358-.14-7.91-.29c1.522-.145 4.196-.285 7.91-.285m0 1.468a85 85 0 0 0 9.508-.365c-.056 1.074-.213 4.533-.675 15.825-2.93.36-5.88.527-8.833.499a67 67 0 0 1-8.118-.42L5.47 6.984c3.143.278 6.298.39 9.453.335m.157 17.816c-7.585 0-9.224-.644-9.325-.71a6 6 0 0 1 .507-.558l.274-.235c2.78.373 5.582.555 8.387.544 3.035.02 6.068-.168 9.077-.564q.438.396.802.859c-.33.165-2.451.664-9.737.664"/><path d="M9.82 8.582a.23.23 0 0 0-.162.066.223.223 0 0 0 0 .317.23.23 0 0 0 .162.066h1.314a.23.23 0 0 0 .161-.066.223.223 0 0 0 0-.317.23.23 0 0 0-.161-.066zm1.314.893H9.82a.7.7 0 0 1-.446-.215.67.67 0 0 1 0-.912.7.7 0 0 1 .446-.215h1.314a.7.7 0 0 1 .522.174.67.67 0 0 1 .222.497.67.67 0 0 1-.222.497.69.69 0 0 1-.522.174M9.82 11.008a.23.23 0 0 0-.162.066.223.223 0 0 0 0 .318.23.23 0 0 0 .162.065h1.314a.23.23 0 0 0 .161-.066.223.223 0 0 0-.161-.383zm1.314.894H9.82a.69.69 0 0 1-.481-.196.663.663 0 0 1 0-.946.69.69 0 0 1 .48-.196h1.315c.18 0 .353.07.48.196a.664.664 0 0 1 0 .946.69.69 0 0 1-.48.196M9.82 13.444a.23.23 0 0 0-.162.065.223.223 0 0 0 0 .318.23.23 0 0 0 .162.066h1.314a.23.23 0 0 0 .161-.066.223.223 0 0 0-.161-.383zm1.314.898H9.82a.7.7 0 0 1-.446-.216.67.67 0 0 1 0-.91.7.7 0 0 1 .446-.217h1.314a.7.7 0 0 1 .522.175.67.67 0 0 1 .222.497.66.66 0 0 1-.222.496.69.69 0 0 1-.522.175M9.82 15.865a.23.23 0 0 0-.242.129.22.22 0 0 0 .059.264.23.23 0 0 0 .183.051h1.314a.23.23 0 0 0 .183-.052.23.23 0 0 0 .079-.17.22.22 0 0 0-.08-.17.23.23 0 0 0-.182-.052zm1.314.894H9.82a.7.7 0 0 1-.446-.216.67.67 0 0 1 0-.911.7.7 0 0 1 .446-.216h1.314a.7.7 0 0 1 .522.175.67.67 0 0 1 .222.496.67.67 0 0 1-.222.497.69.69 0 0 1-.522.175M9.82 18.29a.23.23 0 0 0-.242.13.22.22 0 0 0 .059.263.23.23 0 0 0 .183.052h1.314a.23.23 0 0 0 .241-.128.22.22 0 0 0-.058-.264.23.23 0 0 0-.183-.052zm1.314.894H9.82a.7.7 0 0 1-.446-.215.67.67 0 0 1 0-.912.7.7 0 0 1 .446-.215h1.314a.7.7 0 0 1 .522.174.67.67 0 0 1 .222.497.66.66 0 0 1-.222.497.69.69 0 0 1-.522.174M9.82 20.717a.23.23 0 0 0-.218.13.2.2 0 0 0-.02.084c0 .06.023.117.066.16a.23.23 0 0 0 .162.065h1.314a.23.23 0 0 0 .161-.066.223.223 0 0 0 0-.317.23.23 0 0 0-.161-.066zm1.314.893H9.82a.7.7 0 0 1-.446-.215.67.67 0 0 1 0-.912.7.7 0 0 1 .446-.215h1.314a.7.7 0 0 1 .522.174.67.67 0 0 1 .222.497.67.67 0 0 1-.222.497.69.69 0 0 1-.522.174"/></g><defs><clipPath id="a"><path fill="#fff" d="M4 4.958h22v21.07H4z"/></clipPath></defs></svg>