<svg width="30" height="30" fill="none" viewBox="0 0 30 30"><g clip-path="url(#a)"><mask id="c" width="30" height="30" x="0" y="0" maskUnits="userSpaceOnUse" style="mask-type:alpha"><mask id="b" width="13" height="30" x="15" y="0" maskUnits="userSpaceOnUse" style="mask-type:luminance"><path fill="#fff" fill-rule="evenodd" d="M18.77 2.99C18.77 1.34 20.13 0 21.8 0s3.03 1.34 3.03 2.99V18.7a5.95 5.95 0 0 1-3.03 11.14 5.95 5.95 0 0 1-3.03-11.14z" clip-rule="evenodd"/></mask><g mask="url(#b)"><path fill="#030303" d="M24.83 18.7H22.7v1.25l1.07.6zm-6.06 0 1.06 1.86 1.08-.61V18.7zM21.8-2.12A5.14 5.14 0 0 0 16.64 3h4.26c0-.45.38-.86.9-.86zM26.96 3a5.14 5.14 0 0 0-5.16-5.12v4.26c.52 0 .9.41.9.86zM22.7 3v15.7h4.26V2.98zm7.29 20.89a8.1 8.1 0 0 0-4.1-7.02l-2.12 3.7a3.8 3.8 0 0 1 1.95 3.32zm-8.19 8.1c4.5 0 8.19-3.6 8.19-8.1h-4.27a3.9 3.9 0 0 1-3.92 3.84zm-8.19-8.1c0 4.5 3.7 8.1 8.19 8.1V27.7a3.9 3.9 0 0 1-3.92-3.83zm4.1-7.02a8.1 8.1 0 0 0-4.1 7.02h4.27c0-1.4.77-2.65 1.95-3.32zm3.2 1.85V2.99h-4.27V18.7z"/></g><path fill="#030303" d="M23.8 2.15h-4.05v7.99h4.05z"/><path fill="#030303" fill-rule="evenodd" d="M13.08 23.76c-2.07 2.95-8.72.21-11.25-4.1 4.77-2.71 12.25-1.49 11.81 2.54-.84-1-2.3-2.03-4.23-1.72-2.6.43-2.9.54-2.72.54 1.87 0 5.57.56 6.39 2.74m.4-5.27c-2.57-.03-3.56-4.98-1.98-8.14 3.5 1.7 5.71 6.53 3.13 7.86.27-.88.31-2.14-.64-3.14-1.28-1.34-1.45-1.47-1.38-1.36.73 1.08 1.85 3.45.87 4.78" clip-rule="evenodd"/></mask><g mask="url(#c)"><path fill="#fff" d="M0 0h30v30H0z"/></g></g><defs><clipPath id="a"><path fill="#fff" d="M0 0h30v30H0z"/></clipPath></defs></svg>