<svg width="30" height="30" fill="none" viewBox="0 0 30 30"><g clip-path="url(#a)"><path fill="#fff" fill-rule="evenodd" d="M15.15 6.29a8.86 8.86 0 0 0-8.86 8.86H4.32a10.83 10.83 0 1 1 21.67 0h-1.97a8.86 8.86 0 0 0-8.87-8.86" clip-rule="evenodd"/><path stroke="#fff" stroke-width="1.71" d="M15.15 28.94a13.79 13.79 0 1 0 0-27.58 13.79 13.79 0 0 0 0 27.58Z"/><path stroke="#fff" stroke-width="1.71" d="m11.21 16.79 5.9-6.56-.53 3.85-.1.71.7.2 1.91.5-5.9 6.56.54-3.86.1-.71-.71-.19z"/></g><defs><clipPath id="a"><path fill="#fff" d="M0 0h30v30H0z"/></clipPath></defs></svg>