<svg xmlns="http://www.w3.org/2000/svg" width="30" height="30" fill="none" viewBox="0 0 30 30"><path fill="#fff" d="M17.794 19.209v.968h-.905v-1.479c-1.733-.919-1.39-1.225-1.407.804.235.133 1.244.701 1.298.737-.511.981-.402.76-1.303.275v1.15h-.905v-1.137l-.452.25-.452.248s-.453-.746-.453-.75 1.086-.622 1.326-.76v-1.62l-1.407.808v1.478h-.905v-.963c-.18.106-.972.55-1.018.568l-.217-.4a2 2 0 0 1-.213-.381l.991-.564c-.823-.52-1.117-.24-.43-1.234 0 0 1.358.768 1.358.741 1.257-.888 2.212-.466 0-1.625-.204.111-1.358.768-1.312.724.045-.044-.453-.728-.453-.737 1.167-.666.905-.4-.172-1.07 0 0 .453-.781.453-.75l.493.275.493.275v-.994h.905v1.514l1.47.825v-1.66c-.24-.137-1.28-.719-1.33-.755.53-.976.362-.776 1.326-.257v-1.119h.904v1.132c.973-.546.774-.652 1.303.276l-1.307.736c.031 2.11-.344 1.776 1.452.822v-1.5h.905v.998l.488-.275c.258-.155.48-.28.48-.28q.246.363.452.75c-.864.618-1.465.351-.14 1.057l-.452.746s-1.326-.746-1.308-.724-1.434.808-1.43.835l1.412.794c-.195.147 1.43-.79 1.357-.732 0 0 .453.746.453.75-1.258.666-.842.444.104 1.057-.53 1.083-.453.697-1.439.195M15.002 5.625S9.75 13.73 9.75 17.074s2.352 6.05 5.252 6.05 5.248-2.707 5.248-6.05-5.248-11.45-5.248-11.45"/></svg>