<svg width="30" height="30" fill="none" viewBox="0 0 30 30"><path fill="#fff" stroke="#fff" stroke-width=".55" d="m8.3 8.85-.2-.2.02-.01.01-.02a.6.6 0 0 1 .4-.2 1 1 0 0 1 .49.12l.11.09q.17.13.25.33.12.24.02.6l-.75 2.54-.76 2.55-.23.76 4.11 2.09.5-.52a144 144 0 0 0 4.8-5.52l.03-.02 2.24-2.63a20 20 0 0 1 1.29-1.4.5.5 0 0 1 .4-.12c.2.02.43.1.6.25a.7.7 0 0 1 .28.44l-.01.24q-.05.17-.2.38l-.35.47a363 363 0 0 1-4.44 5.57l-.56.69 5.7 5.5.22.21-.24.2-7.72 6.5-.14.12-.17-.1-10.06-5.54-.19-.1.06-.21c.59-2.14 1.4-5 2.19-7.55.45-1.47.9-2.83 1.29-3.88q.3-.79.52-1.3.21-.44.26-.48zm0 0-.03-.02-.2-.13v.01l-.02.02a.3.3 0 0 0 .12.35l.06-.1zm11.07-2.9c1.1-.95 2.6-.61 3.48.1.46.38.84.93.96 1.6.11.7-.07 1.43-.55 2.08-.6.83-2.75 3.52-4.14 5.25l-.16.19.18.18 4.25 4.1a2.2 2.2 0 0 1-.12 3.26l-7.72 6.5a2.2 2.2 0 0 1-2.48.24L1.51 23.07l.2-.72c.58-2.21 1.53-5.59 2.45-8.56.46-1.48.92-2.88 1.33-3.97q.3-.84.58-1.43c.16-.36.36-.75.58-1a2.6 2.6 0 0 1 3.36-.5c.98.6 1.65 1.83 1.24 3.23l-.76 2.53-.46 1.56-.07.22.2.1 1.01.51.19.1.14-.16c1.2-1.31 2.72-3.11 4.13-4.78v-.01l2.26-2.64a20 20 0 0 1 1.48-1.6Z"/><path fill="#fff" stroke="#fff" stroke-width=".55" d="M20.78.36a7.14 7.14 0 0 1 5.5 12.17.96.96 0 0 1-1.35-1.36 5.22 5.22 0 1 0-7.69-7.05.96.96 0 1 1-1.47-1.24A7 7 0 0 1 20.78.36Z"/></svg>